Preview_144,900-wdth_430.00.ufo
<glyph name="parenleft" format="2">
  <advance width="803"/>
  <unicode hex="0028"/>
  <outline>
    <contour>
      <point x="38.019999999999996" y="653.0" type="qcurve" smooth="yes"/>
      <point x="38.019999999999996" y="963.146370967742"/>
      <point x="441.51193548387096" y="1412.2187903225806"/>
      <point x="725.2701612903226" y="1519.39" type="qcurve"/>
      <point x="780.3001612903226" y="1474.29" type="line"/>
      <point x="632.111935483871" y="1367.1087903225807"/>
      <point x="508.89" y="959.2726612903226"/>
      <point x="508.89" y="654.0" type="qcurve" smooth="yes"/>
      <point x="508.89" y="345.4373387096774"/>
      <point x="649.9366935483871" y="-40.81137096774194"/>
      <point x="788.7101612903226" y="-147.03" type="qcurve"/>
      <point x="735.2701612903226" y="-197.57" type="line"/>
      <point x="424.96669354838707" y="-93.35137096774193"/>
      <point x="38.019999999999996" y="347.48733870967743"/>
    </contour>
  </outline>
</glyph>
<glyph name="plus" format="2">
  <advance width="919"/>
  <unicode hex="002B"/>
  <outline>
    <contour>
      <point x="39.36" y="513.15" type="line"/>
      <point x="39.36" y="750.85" type="line"/>
      <point x="880.51" y="750.85" type="line"/>
      <point x="880.51" y="513.15" type="line"/>
    </contour>
    <contour>
      <point x="325.86" y="222.64" type="line"/>
      <point x="325.86" y="1041.36" type="line"/>
      <point x="593.01" y="1041.36" type="line"/>
      <point x="593.01" y="222.64" type="line"/>
    </contour>
  </outline>
</glyph>
<glyph name="comma" format="2">
  <advance width="512"/>
  <unicode hex="002C"/>
  <outline>
    <contour>
      <point x="56.94" y="-232.4" type="line"/>
      <point x="125.83" y="-191.37"/>
      <point x="258.1" y="-60.2"/>
      <point x="284.25" y="20.42" type="qcurve"/>
      <point x="164.52" y="16.42"/>
      <point x="65.2" y="128.71"/>
      <point x="65.2" y="204.43" type="qcurve" smooth="yes"/>
      <point x="65.2" y="280.29"/>
      <point x="174.36" y="387.44"/>
      <point x="260.66" y="387.44" type="qcurve" smooth="yes"/>
      <point x="346.53" y="387.44"/>
      <point x="457.69" y="281.15"/>
      <point x="457.69" y="183.0" type="qcurve" smooth="yes"/>
      <point x="457.69" y="56.56"/>
      <point x="218.8" y="-229.47"/>
      <point x="84.35" y="-285.34" type="qcurve"/>
    </contour>
  </outline>
</glyph>
<glyph name="hyphen" format="2">
  <advance width="1004"/>
  <unicode hex="002D"/>
  <outline>
    <contour>
      <point x="73.76" y="508.0" type="line"/>
      <point x="73.76" y="803.0" type="line"/>
      <point x="502.2287096774194" y="803.0" type="line"/>
      <point x="930.6974193548388" y="803.0" type="line"/>
      <point x="930.6974193548388" y="508.0" type="line"/>
      <point x="502.2287096774194" y="508.0" type="line"/>
    </contour>
  </outline>
</glyph>
<glyph name="period" format="2">
  <advance width="512"/>
  <unicode hex="002E"/>
  <outline>
    <contour>
      <point x="50.2" y="178.44" type="qcurve" smooth="yes"/>
      <point x="50.2" y="260.16"/>
      <point x="165.36" y="377.74"/>
      <point x="254.66" y="377.74" type="qcurve" smooth="yes"/>
      <point x="344.53" y="377.74"/>
      <point x="461.69" y="260.16"/>
      <point x="461.69" y="178.44" type="qcurve" smooth="yes"/>
      <point x="461.69" y="98.15"/>
      <point x="344.53" y="-22.0"/>
      <point x="254.66" y="-22.0" type="qcurve" smooth="yes"/>
      <point x="165.36" y="-22.0"/>
      <point x="50.2" y="98.15"/>
    </contour>
  </outline>
</glyph>
<glyph name="zero" format="2">
  <advance width="1306"/>
  <unicode hex="0030"/>
  <outline>
    <contour>
      <point x="42.9" y="753.72" type="qcurve" smooth="yes"/>
      <point x="42.9" y="1134.2"/>
      <point x="389.2" y="1525.0"/>
      <point x="656.48" y="1525.0" type="qcurve" smooth="yes"/>
      <point x="924.62" y="1525.0"/>
      <point x="1263.2" y="1137.2"/>
      <point x="1263.2" y="759.99" type="qcurve" smooth="yes"/>
      <point x="1263.2" y="391.74"/>
      <point x="930.05" y="-18.6"/>
      <point x="658.05" y="-18.6" type="qcurve" smooth="yes"/>
      <point x="396.2" y="-18.6"/>
      <point x="42.9" y="380.9"/>
    </contour>
    <contour>
      <point x="501.55" y="761.89" type="qcurve" smooth="yes"/>
      <point x="501.55" y="183.94"/>
      <point x="577.6" y="40.980000000000004"/>
      <point x="653.34" y="40.980000000000004" type="qcurve" smooth="yes"/>
      <point x="728.9300000000001" y="40.980000000000004"/>
      <point x="803.98" y="187.24"/>
      <point x="804.55" y="748.18" type="qcurve" smooth="yes"/>
      <point x="805.12" y="1339.33"/>
      <point x="723.35" y="1475.85"/>
      <point x="652.48" y="1475.28" type="qcurve" smooth="yes"/>
      <point x="580.18" y="1474.71"/>
      <point x="501.55" y="1358.65"/>
    </contour>
  </outline>
</glyph>
<glyph name="four" format="2">
  <advance width="1096"/>
  <unicode hex="0034"/>
  <outline>
    <contour>
      <point x="-19.63" y="510.4" type="line"/>
      <point x="619.06" y="1498.06" type="line"/>
      <point x="907.91" y="1488.06" type="line"/>
      <point x="943.8" y="1431.43" type="line"/>
      <point x="939.0799999999999" y="526.0" type="line"/>
      <point x="938.51" y="86.15" type="line"/>
      <point x="1067.0" y="51.15" type="line"/>
      <point x="1067.0" y="0.0" type="line"/>
      <point x="351.24" y="0.0" type="line"/>
      <point x="351.24" y="51.15" type="line"/>
      <point x="536.5" y="86.15" type="line"/>
      <point x="527.78" y="529.0" type="line"/>
      <point x="527.78" y="1234.62" type="line"/>
      <point x="104.96000000000001" y="580.4" type="line"/>
      <point x="103.25" y="565.4" type="line"/>
      <point x="1087.19" y="571.28" type="line"/>
      <point x="1087.19" y="479.0" type="line"/>
      <point x="-8.04" y="459.4" type="line"/>
    </contour>
  </outline>
</glyph>
<glyph name="nine" format="2">
  <advance width="1206"/>
  <unicode hex="0039"/>
  <outline>
    <contour>
      <point x="50.099999999999994" y="1052.22" type="qcurve" smooth="yes"/>
      <point x="50.099999999999994" y="1272.51"/>
      <point x="359.72" y="1526.29"/>
      <point x="602.1800000000001" y="1526.29" type="qcurve" smooth="yes"/>
      <point x="844.95" y="1526.29"/>
      <point x="1157.83" y="1209.9"/>
      <point x="1157.83" y="874.6" type="qcurve" smooth="yes"/>
      <point x="1157.83" y="415.02"/>
      <point x="649.38" y="-28.72"/>
      <point x="266.62" y="-9.45" type="qcurve"/>
      <point x="277.53" y="60.59" type="line"/>
      <point x="498.52" y="58.019999999999996"/>
      <point x="733.71" y="428.83"/>
      <point x="732.85" y="859.34" type="qcurve" smooth="yes"/>
      <point x="732.42" y="1264.39"/>
      <point x="684.72" y="1466.85"/>
      <point x="591.0" y="1466.85" type="qcurve" smooth="yes"/>
      <point x="540.24" y="1466.85"/>
      <point x="459.59" y="1384.82"/>
      <point x="459.59" y="1092.32" type="qcurve" smooth="yes"/>
      <point x="459.59" y="834.37"/>
      <point x="490.5" y="710.61"/>
      <point x="539.93" y="710.61" type="qcurve" smooth="yes"/>
      <point x="598.77" y="710.61"/>
      <point x="661.31" y="748.64"/>
      <point x="675.61" y="770.79" type="qcurve"/>
      <point x="681.3199999999999" y="700.95" type="line"/>
      <point x="665.29" y="674.8"/>
      <point x="529.6" y="622.8"/>
      <point x="449.35" y="622.8" type="qcurve" smooth="yes"/>
      <point x="288.77" y="622.8"/>
      <point x="50.099999999999994" y="835.81"/>
    </contour>
  </outline>
</glyph>
<glyph name="greater" format="2">
  <advance width="1044"/>
  <unicode hex="003E"/>
  <outline>
    <contour>
      <point x="126.37346774193549" y="445.3164516129032" type="qcurve" smooth="yes"/>
      <point x="187.8158064516129" y="462.18806451612903"/>
      <point x="490.0114516129032" y="596.11"/>
      <point x="567.5114516129032" y="635.0" type="qcurve"/>
      <point x="489.7014516129032" y="678.04"/>
      <point x="212.26048387096773" y="852.6393548387097"/>
      <point x="128.56072580645161" y="881.7164516129033" type="qcurve" smooth="yes"/>
      <point x="87.61701612903227" y="901.7"/>
      <point x="184.7166129032258" y="1076.628629032258"/>
      <point x="228.3248387096774" y="1056.6637096774193" type="qcurve" smooth="yes"/>
      <point x="331.79483870967744" y="1012.6142741935483"/>
      <point x="984.1352419354838" y="640.8446774193548"/>
      <point x="986.0911290322581" y="619.8446774193548" type="qcurve"/>
      <point x="969.6170161290323" y="593.4146774193548"/>
      <point x="283.66306451612905" y="293.7168548387097"/>
      <point x="208.26935483870966" y="253.74370967741936" type="qcurve" smooth="yes"/>
      <point x="181.24975806451613" y="240.03193548387097"/>
      <point x="89.0925" y="423.5574193548387"/>
    </contour>
  </outline>
</glyph>
<glyph name="question" format="2">
  <advance width="1060"/>
  <unicode hex="003F"/>
  <outline>
    <contour>
      <point x="202.17000000000002" y="170.7" type="qcurve" smooth="yes"/>
      <point x="202.17000000000002" y="249.98"/>
      <point x="309.6" y="360.26"/>
      <point x="395.03" y="360.26" type="qcurve" smooth="yes"/>
      <point x="481.03" y="360.26"/>
      <point x="587.46" y="249.98"/>
      <point x="587.46" y="170.7" type="qcurve" smooth="yes"/>
      <point x="587.46" y="89.28"/>
      <point x="481.03" y="-22.0"/>
      <point x="395.03" y="-22.0" type="qcurve" smooth="yes"/>
      <point x="309.6" y="-22.0"/>
      <point x="202.17000000000002" y="89.28"/>
    </contour>
    <contour>
      <point x="38.51" y="1223.12" type="qcurve" smooth="yes"/>
      <point x="38.51" y="1349.82"/>
      <point x="292.48" y="1533.0"/>
      <point x="519.62" y="1533.0" type="qcurve" smooth="yes"/>
      <point x="757.77" y="1533.0"/>
      <point x="1035.59" y="1352.0"/>
      <point x="1035.59" y="1178.43" type="qcurve" smooth="yes"/>
      <point x="1035.59" y="1013.73"/>
      <point x="865.13" y="814.2"/>
      <point x="692.95" y="735.78" type="qcurve" smooth="yes"/>
      <point x="518.25" y="657.89"/>
      <point x="410.78" y="554.75"/>
      <point x="409.64" y="482.43" type="qcurve" smooth="yes"/>
      <point x="408.07" y="456.3" type="line"/>
      <point x="332.04" y="456.3" type="line"/>
      <point x="326.32" y="581.0" type="line" smooth="yes"/>
      <point x="319.74" y="720.3"/>
      <point x="395.49" y="872.76"/>
      <point x="485.28" y="944.06" type="qcurve" smooth="yes"/>
      <point x="555.75" y="1000.77"/>
      <point x="629.56" y="1127.76"/>
      <point x="629.56" y="1223.91" type="qcurve" smooth="yes"/>
      <point x="629.56" y="1320.62"/>
      <point x="530.88" y="1420.0"/>
      <point x="425.34000000000003" y="1420.0" type="qcurve" smooth="yes"/>
      <point x="327.24" y="1420.0"/>
      <point x="210.53" y="1340.42"/>
      <point x="210.53" y="1291.69" type="qcurve" smooth="yes"/>
      <point x="210.53" y="1263.81"/>
      <point x="331.57" y="1181.54"/>
      <point x="331.14" y="1121.67" type="qcurve" smooth="yes"/>
      <point x="329.85" y="1075.38"/>
      <point x="265.86" y="1013.22"/>
      <point x="205.97" y="1013.22" type="qcurve" smooth="yes"/>
      <point x="135.24" y="1013.22"/>
      <point x="38.51" y="1117.66"/>
    </contour>
  </outline>
</glyph>
<glyph name="A" format="2">
  <advance width="1451"/>
  <unicode hex="0041"/>
  <outline>
    <contour>
      <point x="-1.6600000000000001" y="0.0" type="line"/>
      <point x="-1.9400000000000013" y="52.72" type="line"/>
      <point x="128.3" y="92.42" type="line"/>
      <point x="260.19" y="577.3" type="line"/>
      <point x="510.23" y="1499.14" type="line"/>
      <point x="974.66" y="1499.14" type="line"/>
      <point x="1184.8600000000001" y="685.47" type="line"/>
      <point x="1348.09" y="86.15" type="line"/>
      <point x="1437.6399999999999" y="52.72" type="line"/>
      <point x="1436.78" y="0.0" type="line"/>
      <point x="730.36" y="0.0" type="line"/>
      <point x="731.22" y="52.72" type="line"/>
      <point x="831.63" y="90.15" type="line"/>
      <point x="713.1800000000001" y="577.19" type="line"/>
      <point x="535.9300000000001" y="1294.8" type="line"/>
      <point x="334.65999999999997" y="566.3" type="line"/>
      <point x="207.79" y="91.14" type="line"/>
      <point x="359.39" y="52.72" type="line"/>
      <point x="358.53" y="0.0" type="line"/>
    </contour>
    <contour>
      <point x="508.14" y="596.89" type="line"/>
      <point x="796.11" y="602.61" type="line"/>
      <point x="806.69" y="538.45" type="line"/>
      <point x="507.28" y="535.44" type="line"/>
    </contour>
    <contour>
      <point x="291.77" y="538.45" type="line"/>
      <point x="302.49" y="601.61" type="line"/>
      <point x="508.14" y="596.89" type="line"/>
      <point x="507.28" y="535.44" type="line"/>
    </contour>
  </outline>
</glyph>
<glyph name="E" format="2">
  <advance width="1315"/>
  <unicode hex="0045"/>
  <outline>
    <contour>
      <point x="32.519999999999996" y="0.0" type="line"/>
      <point x="32.519999999999996" y="52.72" type="line"/>
      <point x="144.82" y="86.0" type="line"/>
      <point x="146.82" y="726.0" type="line"/>
      <point x="144.82" y="1411.71" type="line"/>
      <point x="32.519999999999996" y="1445.28" type="line"/>
      <point x="32.519999999999996" y="1500.0" type="line"/>
      <point x="1212.77" y="1500.0" type="line"/>
      <point x="1212.77" y="1127.1" type="line"/>
      <point x="1150.59" y="1127.1" type="line"/>
      <point x="1042.13" y="1435.7" type="line"/>
      <point x="676.61" y="1435.7" type="line"/>
      <point x="628.7" y="1410.85" type="line"/>
      <point x="627.41" y="785.29" type="line"/>
      <point x="628.7" y="91.73" type="line"/>
      <point x="657.44" y="64.3" type="line"/>
      <point x="1095.51" y="64.3" type="line"/>
      <point x="1226.08" y="410.1" type="line"/>
      <point x="1287.55" y="410.1" type="line"/>
      <point x="1256.1" y="0.0" type="line"/>
    </contour>
    <contour>
      <point x="408.1" y="753.26" type="line"/>
      <point x="408.1" y="805.84" type="line"/>
      <point x="977.21" y="810.69" type="line"/>
      <point x="1065.34" y="990.8" type="line"/>
      <point x="1125.24" y="990.8" type="line"/>
      <point x="1125.24" y="565.6" type="line"/>
      <point x="1065.34" y="565.6" type="line"/>
      <point x="977.21" y="748.41" type="line"/>
    </contour>
  </outline>
</glyph>
<glyph name="F" format="2">
  <advance width="1199"/>
  <unicode hex="0046"/>
  <outline>
    <contour>
      <point x="32.519999999999996" y="0.0" type="line"/>
      <point x="32.519999999999996" y="52.72" type="line"/>
      <point x="144.82" y="85.72" type="line"/>
      <point x="146.82" y="757.58" type="line"/>
      <point x="144.82" y="1410.42" type="line"/>
      <point x="32.519999999999996" y="1443.99" type="line"/>
      <point x="32.519999999999996" y="1500.0" type="line"/>
      <point x="1170.44" y="1500.0" type="line"/>
      <point x="1170.44" y="1121.4" type="line"/>
      <point x="1105.12" y="1121.4" type="line"/>
      <point x="994.24" y="1435.7" type="line"/>
      <point x="665.58" y="1435.7" type="line"/>
      <point x="624.84" y="1408.13" type="line"/>
      <point x="626.71" y="758.4" type="line"/>
      <point x="628.71" y="90.15" type="line"/>
      <point x="761.28" y="53.72" type="line"/>
      <point x="761.28" y="0.0" type="line"/>
    </contour>
    <contour>
      <point x="393.1" y="746.67" type="line"/>
      <point x="393.1" y="801.52" type="line"/>
      <point x="949.01" y="805.81" type="line"/>
      <point x="1027.42" y="980.36" type="line"/>
      <point x="1089.03" y="980.36" type="line"/>
      <point x="1089.03" y="551.26" type="line"/>
      <point x="1028.71" y="551.26" type="line"/>
      <point x="949.01" y="742.38" type="line"/>
    </contour>
  </outline>
</glyph>
<glyph name="H" format="2">
  <advance width="1675"/>
  <unicode hex="0048"/>
  <outline>
    <contour>
      <point x="32.519999999999996" y="0.0" type="line"/>
      <point x="32.519999999999996" y="52.72" type="line"/>
      <point x="144.82" y="87.72" type="line"/>
      <point x="146.82" y="775.0" type="line"/>
      <point x="144.82" y="1410.42" type="line"/>
      <point x="32.519999999999996" y="1444.42" type="line"/>
      <point x="32.519999999999996" y="1500.0" type="line"/>
      <point x="731.5799999999999" y="1500.0" type="line"/>
      <point x="731.5799999999999" y="1444.42" type="line"/>
      <point x="628.84" y="1410.42" type="line"/>
      <point x="626.84" y="775.86" type="line"/>
      <point x="628.84" y="87.72" type="line"/>
      <point x="731.5799999999999" y="52.72" type="line"/>
      <point x="731.5799999999999" y="0.0" type="line"/>
    </contour>
    <contour>
      <point x="390.82" y="743.85" type="line"/>
      <point x="390.82" y="807.58" type="line"/>
      <point x="824.09" y="804.58" type="line"/>
      <point x="1299.88" y="807.58" type="line"/>
      <point x="1299.88" y="743.85" type="line"/>
      <point x="824.09" y="743.85" type="line"/>
    </contour>
    <contour>
      <point x="942.4412903225807" y="0.0" type="line"/>
      <point x="942.4412903225807" y="52.72" type="line"/>
      <point x="1046.3212903225808" y="87.72" type="line"/>
      <point x="1048.46" y="775.86" type="line"/>
      <point x="1046.3212903225808" y="1410.42" type="line"/>
      <point x="943.5812903225807" y="1444.42" type="line"/>
      <point x="943.5812903225807" y="1500.0" type="line"/>
      <point x="1642.6412903225807" y="1500.0" type="line"/>
      <point x="1642.6412903225807" y="1444.42" type="line"/>
      <point x="1530.3412903225808" y="1410.42" type="line"/>
      <point x="1528.3412903225808" y="775.0" type="line"/>
      <point x="1530.3412903225808" y="87.72" type="line"/>
      <point x="1642.6412903225807" y="52.72" type="line"/>
      <point x="1642.6412903225807" y="0.0" type="line"/>
    </contour>
  </outline>
</glyph>
<glyph name="J" format="2">
  <advance width="814"/>
  <unicode hex="004A"/>
  <outline>
    <contour>
      <point x="-12.17" y="4.45" type="qcurve"/>
      <point x="-5.17" y="60.019999999999996" type="line"/>
      <point x="11.27" y="56.59"/>
      <point x="50.88" y="52.73"/>
      <point x="80.03999999999999" y="52.73" type="qcurve" smooth="yes"/>
      <point x="130.53" y="52.73"/>
      <point x="190.63" y="115.8"/>
      <point x="191.06" y="197.46" type="qcurve" smooth="yes"/>
      <point x="194.63" y="719.6" type="line"/>
      <point x="189.78" y="1410.42" type="line"/>
      <point x="46.16" y="1444.42" type="line"/>
      <point x="46.16" y="1500.0" type="line"/>
      <point x="797.7" y="1500.0" type="line"/>
      <point x="797.7" y="1444.42" type="line"/>
      <point x="672.09" y="1410.42" type="line"/>
      <point x="672.09" y="719.6" type="line"/>
      <point x="670.8" y="362.45" type="line" smooth="yes"/>
      <point x="669.94" y="188.45"/>
      <point x="420.03" y="-17.41"/>
      <point x="200.43" y="-17.41" type="qcurve" smooth="yes"/>
      <point x="142.12" y="-17.41"/>
      <point x="27.009999999999998" y="-5.12"/>
    </contour>
  </outline>
</glyph>
<glyph name="P" format="2">
  <advance width="1445"/>
  <unicode hex="0050"/>
  <outline>
    <contour>
      <point x="32.519999999999996" y="0.0" type="line"/>
      <point x="32.519999999999996" y="52.15" type="line"/>
      <point x="144.82" y="86.58" type="line"/>
      <point x="146.82" y="754.0" type="line"/>
      <point x="144.82" y="1410.42" type="line"/>
      <point x="32.519999999999996" y="1444.42" type="line"/>
      <point x="32.519999999999996" y="1500.0" type="line"/>
      <point x="898.23" y="1500.0" type="line" smooth="yes"/>
      <point x="1161.71" y="1500.0"/>
      <point x="1423.1" y="1294.96"/>
      <point x="1423.1" y="1077.64" type="qcurve" smooth="yes"/>
      <point x="1423.1" y="853.33"/>
      <point x="1102.13" y="627.99"/>
      <point x="827.2629838709677" y="627.99" type="qcurve" smooth="yes"/>
      <point x="738.87" y="627.99"/>
      <point x="609.29" y="645.59"/>
      <point x="548.27" y="663.59" type="qcurve"/>
      <point x="555.56" y="719.61" type="line"/>
      <point x="584.88" y="710.32"/>
      <point x="718.64" y="685.01"/>
      <point x="763.73" y="685.01" type="qcurve" smooth="yes"/>
      <point x="862.92" y="685.01"/>
      <point x="951.98" y="834.66"/>
      <point x="950.69" y="1080.45" type="qcurve" smooth="yes"/>
      <point x="948.97" y="1294.75"/>
      <point x="866.5799999999999" y="1437.85"/>
      <point x="784.75" y="1435.7" type="qcurve" smooth="yes"/>
      <point x="640.55" y="1435.7" type="line"/>
      <point x="624.98" y="1420.69" type="line"/>
      <point x="623.69" y="748.61" type="line"/>
      <point x="625.69" y="90.15" type="line"/>
      <point x="741.86" y="52.72" type="line"/>
      <point x="741.86" y="0.0" type="line"/>
    </contour>
  </outline>
</glyph>
<glyph name="V" format="2">
  <advance width="1435"/>
  <unicode hex="0056"/>
  <outline>
    <contour>
      <point x="11.19" y="1447.13" type="line"/>
      <point x="10.049999999999999" y="1500.0" type="line"/>
      <point x="712.68" y="1500.0" type="line"/>
      <point x="712.68" y="1447.13" type="line"/>
      <point x="600.68" y="1419.56" type="line"/>
      <point x="751.3199999999999" y="825.44" type="line"/>
      <point x="915.31" y="226.88" type="line"/>
      <point x="1084.44" y="846.14" type="line"/>
      <point x="1227.35" y="1408.14" type="line"/>
      <point x="1091.3" y="1447.13" type="line"/>
      <point x="1090.44" y="1500.0" type="line"/>
      <point x="1440.56" y="1500.0" type="line"/>
      <point x="1440.99" y="1447.13" type="line"/>
      <point x="1306.38" y="1411.58" type="line"/>
      <point x="1149.43" y="826.97" type="line"/>
      <point x="934.42" y="0.0" type="line"/>
      <point x="489.84000000000003" y="0.0" type="line"/>
      <point x="298.61" y="725.61" type="line"/>
      <point x="104.61" y="1417.56" type="line"/>
    </contour>
  </outline>
</glyph>
<glyph name="W" format="2">
  <advance width="2131"/>
  <unicode hex="0057"/>
  <outline>
    <contour>
      <point x="11.77" y="1447.99" type="line"/>
      <point x="10.629999999999999" y="1500.0" type="line"/>
      <point x="700.0" y="1500.0" type="line"/>
      <point x="700.0" y="1447.99" type="line"/>
      <point x="605.7" y="1420.42" type="line"/>
      <point x="741.05" y="810.7" type="line"/>
      <point x="863.6800000000001" y="278.05" type="line"/>
      <point x="973.21" y="728.62" type="line"/>
      <point x="1080.6" y="1173.52" type="line"/>
      <point x="1143.6" y="1147.08" type="line"/>
      <point x="1039.65" y="715.76" type="line"/>
      <point x="870.8199999999999" y="0.0" type="line"/>
      <point x="448.53" y="0.0" type="line"/>
      <point x="283.32" y="725.36" type="line"/>
      <point x="116.92999999999999" y="1417.85" type="line"/>
    </contour>
    <contour>
      <point x="828.14" y="1444.98" type="line"/>
      <point x="828.14" y="1500.0" type="line"/>
      <point x="1509.03" y="1500.0" type="line"/>
      <point x="1509.03" y="1447.26" type="line"/>
      <point x="1405.87" y="1420.69" type="line"/>
      <point x="1522.22" y="839.09" type="line"/>
      <point x="1649.51" y="304.8" type="line"/>
      <point x="1786.8600000000001" y="869.33" type="line"/>
      <point x="1918.3400000000001" y="1415.26" type="line"/>
      <point x="1769.8600000000001" y="1447.99" type="line"/>
      <point x="1769.8600000000001" y="1500.0" type="line"/>
      <point x="2128.9700000000003" y="1500.0" type="line"/>
      <point x="2128.9700000000003" y="1447.99" type="line"/>
      <point x="1996.21" y="1417.42" type="line"/>
      <point x="1859.15" y="848.6" type="line"/>
      <point x="1664.35" y="0.0" type="line"/>
      <point x="1253.32" y="0.0" type="line"/>
      <point x="1084.3600000000001" y="744.96" type="line"/>
      <point x="927.4" y="1415.41" type="line"/>
    </contour>
  </outline>
</glyph>
<glyph name="X" format="2">
  <advance width="1436"/>
  <unicode hex="0058"/>
  <outline>
    <contour>
      <point x="1.13" y="0.0" type="line"/>
      <point x="1.13" y="53.29" type="line"/>
      <point x="161.06" y="84.29" type="line"/>
      <point x="635.85" y="841.9" type="line"/>
      <point x="817.02" y="845.34" type="line"/>
      <point x="1152.83" y="1407.14" type="line"/>
      <point x="1018.79" y="1445.42" type="line"/>
      <point x="1018.79" y="1500.0" type="line"/>
      <point x="1391.99" y="1500.0" type="line"/>
      <point x="1391.99" y="1445.42" type="line"/>
      <point x="1244.76" y="1411.71" type="line"/>
      <point x="856.44" y="794.34" type="line"/>
      <point x="680.11" y="791.33" type="line"/>
      <point x="262.40999999999997" y="90.01" type="line"/>
      <point x="412.03999999999996" y="53.29" type="line"/>
      <point x="412.03999999999996" y="0.0" type="line"/>
    </contour>
    <contour>
      <point x="27.77" y="1445.42" type="line"/>
      <point x="27.77" y="1500.0" type="line"/>
      <point x="796.28" y="1500.0" type="line"/>
      <point x="796.28" y="1445.42" type="line"/>
      <point x="678.09" y="1411.28" type="line"/>
      <point x="930.9" y="858.39" type="line"/>
      <point x="1307.43" y="86.72" type="line"/>
      <point x="1433.21" y="53.29" type="line"/>
      <point x="1433.21" y="0.0" type="line"/>
      <point x="648.0799999999999" y="0.0" type="line"/>
      <point x="648.0799999999999" y="53.29" type="line"/>
      <point x="786.3" y="86.72" type="line"/>
      <point x="490.98" y="718.24" type="line"/>
      <point x="158.42000000000002" y="1409.71" type="line"/>
    </contour>
  </outline>
</glyph>
<glyph name="Y" format="2">
  <advance width="1349"/>
  <unicode hex="0059"/>
  <outline>
    <contour>
      <point x="-8.55" y="1447.13" type="line"/>
      <point x="-8.55" y="1500.0" type="line"/>
      <point x="711.09" y="1500.0" type="line"/>
      <point x="711.09" y="1447.13" type="line"/>
      <point x="601.53" y="1416.28" type="line"/>
      <point x="734.48" y="1090.87" type="line"/>
      <point x="887.46" y="732.86" type="line"/>
      <point x="1043.82" y="1080.83" type="line"/>
      <point x="1185.31" y="1415.84" type="line"/>
      <point x="1052.92" y="1447.13" type="line"/>
      <point x="1052.92" y="1500.0" type="line"/>
      <point x="1392.5" y="1500.0" type="line"/>
      <point x="1392.5" y="1445.42" type="line"/>
      <point x="1260.21" y="1414.27" type="line"/>
      <point x="1097.82" y="1051.93" type="line"/>
      <point x="924.02" y="645.3" type="line"/>
      <point x="924.02" y="86.72" type="line"/>
      <point x="1052.87" y="54.72" type="line"/>
      <point x="1052.87" y="0.0" type="line"/>
      <point x="309.01" y="0.0" type="line"/>
      <point x="309.01" y="54.72" type="line"/>
      <point x="438.15" y="86.72" type="line"/>
      <point x="440.15" y="625.7" type="line"/>
      <point x="279.19" y="998.93" type="line"/>
      <point x="89.0" y="1408.57" type="line"/>
    </contour>
  </outline>
</glyph>
<glyph name="Z" format="2">
  <advance width="1260"/>
  <unicode hex="005A"/>
  <outline>
    <contour>
      <point x="21.72" y="-0.86" type="line"/>
      <point x="5.43" y="60.56" type="line"/>
      <point x="658.37" y="1411.87" type="line"/>
      <point x="652.23" y="1430.0" type="line"/>
      <point x="217.23" y="1430.0" type="line"/>
      <point x="133.38" y="1123.11" type="line"/>
      <point x="67.5" y="1123.11" type="line"/>
      <point x="67.5" y="1500.0" type="line"/>
      <point x="1194.62" y="1500.0" type="line"/>
      <point x="1194.62" y="1430.0" type="line"/>
      <point x="559.59" y="101.56" type="line"/>
      <point x="565.02" y="73.7" type="line"/>
      <point x="1030.2" y="73.7" type="line"/>
      <point x="1146.9099999999999" y="387.92" type="line"/>
      <point x="1220.09" y="387.92" type="line"/>
      <point x="1183.38" y="-0.86" type="line"/>
    </contour>
  </outline>
</glyph>
<glyph name="backslash" format="2">
  <advance width="1097"/>
  <unicode hex="005C"/>
  <outline>
    <contour>
      <point x="50.769999999999996" y="1499.53" type="line"/>
      <point x="255.21" y="1588.0" type="line"/>
      <point x="1048.2048387096775" y="-103.0" type="line"/>
      <point x="841.7648387096774" y="-190.47" type="line"/>
    </contour>
  </outline>
</glyph>
<glyph name="bracketright" format="2">
  <advance width="731"/>
  <unicode hex="005D"/>
  <outline>
    <contour>
      <point x="16.85" y="-150.0" type="line"/>
      <point x="16.85" y="-112.45" type="line"/>
      <point x="272.0641935483871" y="-99.45" type="line"/>
      <point x="274.0274193548387" y="508.0" type="line"/>
      <point x="272.0641935483871" y="1449.45" type="line"/>
      <point x="16.85" y="1462.45" type="line"/>
      <point x="16.85" y="1500.0" type="line"/>
      <point x="664.1774193548388" y="1500.0" type="line"/>
      <point x="664.1774193548388" y="1472.0" type="line"/>
      <point x="652.1774193548388" y="1458.0" type="line"/>
      <point x="646.1774193548388" y="508.0" type="line"/>
      <point x="652.1774193548388" y="-108.0" type="line"/>
      <point x="664.1774193548388" y="-122.0" type="line"/>
      <point x="664.1774193548388" y="-150.0" type="line"/>
    </contour>
  </outline>
</glyph>
<glyph name="asciicircum" format="2">
  <advance width="1047"/>
  <unicode hex="005E"/>
  <outline>
    <contour>
      <point x="73.50999999999999" y="980.0" type="line"/>
      <point x="113.39" y="1050.370564516129"/>
      <point x="517.7087096774194" y="1517.0"/>
      <point x="513.7187096774194" y="1517.0" type="qcurve"/>
      <point x="515.2987096774194" y="1517.0"/>
      <point x="926.6374193548388" y="1047.8446774193549"/>
      <point x="974.5174193548388" y="981.0" type="qcurve"/>
      <point x="902.9741935483871" y="951.8" type="line"/>
      <point x="804.6541935483871" y="1039.9717741935483"/>
      <point x="510.88709677419354" y="1259.6"/>
      <point x="513.1670967741935" y="1259.6" type="qcurve"/>
      <point x="516.5870967741936" y="1259.6"/>
      <point x="240.82999999999998" y="1040.8131451612903"/>
      <point x="145.09" y="950.8" type="qcurve"/>
    </contour>
  </outline>
</glyph>
<glyph name="grave" format="2">
  <advance width="896"/>
  <unicode hex="0060"/>
  <outline>
    <contour>
      <point x="202.35" y="1278.86" type="qcurve" smooth="yes"/>
      <point x="202.35" y="1332.86"/>
      <point x="275.78" y="1398.6"/>
      <point x="340.23" y="1398.6" type="qcurve" smooth="yes"/>
      <point x="395.35" y="1398.6"/>
      <point x="466.53" y="1327.44"/>
      <point x="505.11" y="1274.3" type="qcurve" smooth="yes"/>
      <point x="679.95" y="1037.2" type="line"/>
      <point x="650.65" y="1004.9" type="line"/>
      <point x="317.95" y="1140.7" type="line" smooth="yes"/>
      <point x="253.1" y="1166.99"/>
      <point x="202.35" y="1225.86"/>
    </contour>
  </outline>
</glyph>
<glyph name="b" format="2">
  <advance width="1490"/>
  <unicode hex="0062"/>
  <outline>
    <contour>
      <point x="114.18" y="-0.86" type="line"/>
      <point x="115.03999999999999" y="534.0" type="line"/>
      <point x="120.75" y="1403.41" type="line"/>
      <point x="9.03" y="1441.7" type="line"/>
      <point x="9.03" y="1500.0" type="line"/>
      <point x="498.96" y="1514.0" type="line"/>
      <point x="526.96" y="1512.0" type="line"/>
      <point x="569.51" y="1466.14" type="line"/>
      <point x="570.37" y="871.77" type="line"/>
      <point x="595.29" y="905.82"/>
      <point x="779.23" y="993.16"/>
      <point x="934.25" y="993.16" type="qcurve" smooth="yes"/>
      <point x="1138.15" y="993.16"/>
      <point x="1446.43" y="758.08"/>
      <point x="1446.43" y="516.28" type="qcurve" smooth="yes"/>
      <point x="1446.43" y="258.75"/>
      <point x="1136.0" y="-20.02"/>
      <point x="902.9" y="-20.02" type="qcurve" smooth="yes"/>
      <point x="749.92" y="-20.02"/>
      <point x="559.01" y="54.03"/>
      <point x="518.97" y="104.32" type="qcurve"/>
      <point x="421.32" y="-0.86" type="line"/>
    </contour>
    <contour>
      <point x="567.22" y="295.53" type="line"/>
      <point x="569.95" y="163.52" type="line"/>
      <point x="593.71" y="122.62"/>
      <point x="693.81" y="76.1"/>
      <point x="764.99" y="76.1" type="qcurve" smooth="yes"/>
      <point x="847.15" y="76.1"/>
      <point x="952.99" y="202.51"/>
      <point x="952.99" y="468.29" type="qcurve" smooth="yes"/>
      <point x="952.99" y="726.66"/>
      <point x="858.75" y="869.62"/>
      <point x="764.86" y="869.62" type="qcurve" smooth="yes"/>
      <point x="698.99" y="869.62"/>
      <point x="598.3" y="814.0"/>
      <point x="570.36" y="779.53" type="qcurve"/>
    </contour>
  </outline>
</glyph>
<glyph name="d" format="2">
  <advance width="1467"/>
  <unicode hex="0064"/>
  <outline>
    <contour>
      <point x="38.34" y="475.96" type="qcurve" smooth="yes"/>
      <point x="38.34" y="752.54"/>
      <point x="370.75040322580645" y="987.15"/>
      <point x="601.8225806451612" y="987.15" type="qcurve" smooth="yes"/>
      <point x="701.9329838709677" y="987.15"/>
      <point x="849.86" y="951.55"/>
      <point x="882.77" y="930.24" type="qcurve"/>
      <point x="879.2" y="1404.41" type="line"/>
      <point x="745.19" y="1439.99" type="line"/>
      <point x="745.19" y="1500.0" type="line"/>
      <point x="1263.35" y="1512.0" type="line"/>
      <point x="1300.22" y="1511.57" type="line"/>
      <point x="1344.8" y="1464.28" type="line"/>
      <point x="1346.6399999999999" y="498.0" type="line"/>
      <point x="1350.78" y="87.46" type="line"/>
      <point x="1456.52" y="57.019999999999996" type="line"/>
      <point x="1456.52" y="0.0" type="line"/>
      <point x="901.8" y="0.0" type="line"/>
      <point x="890.0799999999999" y="16.43" type="line"/>
      <point x="883.501693548387" y="91.75" type="line"/>
      <point x="850.3217741935483" y="49.31"/>
      <point x="645.8598387096774" y="-15.02"/>
      <point x="512.6237096774194" y="-15.02" type="qcurve" smooth="yes"/>
      <point x="322.58862903225804" y="-15.02"/>
      <point x="38.34" y="217.7"/>
    </contour>
    <contour>
      <point x="524.92" y="480.52" type="qcurve" smooth="yes"/>
      <point x="524.92" y="221.05"/>
      <point x="625.59" y="89.11"/>
      <point x="706.02" y="89.11" type="qcurve" smooth="yes"/>
      <point x="759.5699999999999" y="89.11"/>
      <point x="865.56" y="137.33"/>
      <point x="883.62" y="183.63" type="qcurve" smooth="yes"/>
      <point x="884.91" y="501.45" type="line"/>
      <point x="884.3299999999999" y="822.86" type="line" smooth="yes"/>
      <point x="874.01" y="849.13"/>
      <point x="787.51" y="896.29"/>
      <point x="713.94" y="895.72" type="qcurve" smooth="yes"/>
      <point x="629.36" y="895.15"/>
      <point x="524.92" y="734.33"/>
    </contour>
  </outline>
</glyph>
<glyph name="e" format="2">
  <advance width="1228"/>
  <unicode hex="0065"/>
  <outline>
    <contour>
      <point x="45.93" y="486.27" type="qcurve" smooth="yes"/>
      <point x="45.93" y="749.55"/>
      <point x="400.15999999999997" y="998.73"/>
      <point x="654.3299999999999" y="998.73" type="qcurve" smooth="yes"/>
      <point x="905.3299999999999" y="998.73"/>
      <point x="1223.87" y="760.14"/>
      <point x="1232.6" y="555.0" type="qcurve"/>
      <point x="1234.31" y="484.7" type="line"/>
      <point x="445.34" y="484.7" type="line"/>
      <point x="445.34" y="557.44" type="line"/>
      <point x="834.26" y="557.44" type="line"/>
      <point x="833.8299999999999" y="804.26"/>
      <point x="751.76" y="930.16"/>
      <point x="680.1800000000001" y="930.16" type="qcurve" smooth="yes"/>
      <point x="613.17" y="930.16"/>
      <point x="521.23" y="820.0"/>
      <point x="521.23" y="517.26" type="qcurve" smooth="yes"/>
      <point x="521.23" y="246.86"/>
      <point x="662.58" y="99.23"/>
      <point x="786.3" y="99.23" type="qcurve" smooth="yes"/>
      <point x="912.85" y="99.23"/>
      <point x="1109.07" y="212.39"/>
      <point x="1172.1599999999999" y="306.1" type="qcurve"/>
      <point x="1216.29" y="267.06" type="line"/>
      <point x="1162.79" y="150.11"/>
      <point x="865.87" y="-20.18"/>
      <point x="662.76" y="-20.18" type="qcurve" smooth="yes"/>
      <point x="406.9" y="-20.18"/>
      <point x="45.93" y="243.0"/>
    </contour>
  </outline>
</glyph>
<glyph name="h" format="2">
  <advance width="1513"/>
  <unicode hex="0068"/>
  <outline>
    <contour>
      <point x="29.07" y="0.0" type="line"/>
      <point x="29.07" y="57.019999999999996" type="line"/>
      <point x="132.39" y="88.03" type="line"/>
      <point x="134.39" y="482.0" type="line"/>
      <point x="124.39" y="1404.12" type="line"/>
      <point x="19.81" y="1441.7" type="line"/>
      <point x="19.81" y="1500.0" type="line"/>
      <point x="509.97" y="1512.57" type="line"/>
      <point x="544.97" y="1512.14" type="line"/>
      <point x="586.83" y="1464.14" type="line"/>
      <point x="579.69" y="802.02" type="line"/>
      <point x="629.93" y="864.35"/>
      <point x="852.89" y="989.72"/>
      <point x="1024.02" y="989.72" type="qcurve" smooth="yes"/>
      <point x="1219.06" y="989.72"/>
      <point x="1401.96" y="810.65"/>
      <point x="1401.96" y="693.77" type="qcurve" smooth="yes"/>
      <point x="1401.96" y="658.91"/>
      <point x="1400.82" y="534.47"/>
      <point x="1400.82" y="516.86" type="qcurve"/>
      <point x="1404.96" y="87.46" type="line"/>
      <point x="1504.54" y="57.019999999999996" type="line"/>
      <point x="1504.54" y="0.0" type="line"/>
      <point x="860.48" y="0.0" type="line"/>
      <point x="860.48" y="53.03" type="line"/>
      <point x="929.94" y="83.47" type="line"/>
      <point x="933.66" y="469.95" type="line"/>
      <point x="933.66" y="618.43" type="line" smooth="yes"/>
      <point x="933.66" y="729.21"/>
      <point x="868.5" y="794.89"/>
      <point x="797.63" y="794.89" type="qcurve" smooth="yes"/>
      <point x="725.3199999999999" y="794.89"/>
      <point x="615.91" y="738.76"/>
      <point x="591.41" y="712.14" type="qcurve"/>
      <point x="592.27" y="462.49" type="line"/>
      <point x="595.56" y="88.03" type="line"/>
      <point x="688.31" y="57.019999999999996" type="line"/>
      <point x="688.31" y="0.0" type="line"/>
    </contour>
  </outline>
</glyph>
<glyph name="k" format="2">
  <advance width="1373"/>
  <unicode hex="006B"/>
  <outline>
    <contour>
      <point x="29.07" y="0.0" type="line"/>
      <point x="29.07" y="57.019999999999996" type="line"/>
      <point x="132.95999999999998" y="88.03" type="line"/>
      <point x="133.82" y="482.0" type="line"/>
      <point x="124.39" y="1403.98" type="line"/>
      <point x="19.81" y="1441.7" type="line"/>
      <point x="19.81" y="1500.0" type="line"/>
      <point x="511.12" y="1513.14" type="line"/>
      <point x="542.39" y="1512.71" type="line"/>
      <point x="587.26" y="1464.14" type="line"/>
      <point x="591.41" y="544.55" type="line"/>
      <point x="596.13" y="88.6" type="line"/>
      <point x="688.02" y="57.019999999999996" type="line"/>
      <point x="688.02" y="0.0" type="line"/>
    </contour>
    <contour>
      <point x="540.74" y="379.83" type="line"/>
      <point x="512.58" y="440.98" type="line"/>
      <point x="1064.92" y="882.7" type="line"/>
      <point x="963.79" y="912.7" type="line"/>
      <point x="963.79" y="970.0" type="line"/>
      <point x="1313.96" y="970.0" type="line"/>
      <point x="1313.96" y="912.7" type="line"/>
      <point x="1183.29" y="882.7" type="line"/>
    </contour>
    <contour>
      <point x="640.85" y="490.73" type="line"/>
      <point x="987.16" y="779.3" type="line"/>
      <point x="1331.85" y="88.32" type="line"/>
      <point x="1420.82" y="57.019999999999996" type="line"/>
      <point x="1420.82" y="0.0" type="line"/>
      <point x="789.6800000000001" y="0.0" type="line"/>
      <point x="786.8199999999999" y="46.0" type="line"/>
      <point x="827.94" y="83.3" type="line"/>
    </contour>
  </outline>
</glyph>
<glyph name="m" format="2">
  <advance width="2277"/>
  <unicode hex="006D"/>
  <outline>
    <contour>
      <point x="29.07" y="0.0" type="line"/>
      <point x="29.07" y="57.019999999999996" type="line"/>
      <point x="131.39" y="87.46" type="line"/>
      <point x="134.82" y="526.79" type="line"/>
      <point x="130.25" y="850.7" type="line"/>
      <point x="21.919999999999998" y="885.7" type="line"/>
      <point x="21.919999999999998" y="943.86" type="line"/>
      <point x="513.06" y="985.0" type="line"/>
      <point x="578.4" y="936.52" type="line"/>
      <point x="580.55" y="796.19" type="line"/>
      <point x="635.81" y="873.13"/>
      <point x="848.3199999999999" y="990.15"/>
      <point x="1024.73" y="990.15" type="qcurve" smooth="yes"/>
      <point x="1163.25" y="990.15"/>
      <point x="1341.75" y="885.24"/>
      <point x="1362.2" y="796.34" type="qcurve"/>
      <point x="1423.59" y="880.25"/>
      <point x="1651.1100000000001" y="990.15"/>
      <point x="1802.63" y="990.15" type="qcurve" smooth="yes"/>
      <point x="1985.51" y="990.15"/>
      <point x="2166.84" y="827.27"/>
      <point x="2166.84" y="697.36" type="qcurve" smooth="yes"/>
      <point x="2166.84" y="657.2"/>
      <point x="2164.41" y="563.19"/>
      <point x="2164.41" y="534.63" type="qcurve"/>
      <point x="2167.26" y="87.03" type="line"/>
      <point x="2269.85" y="57.019999999999996" type="line"/>
      <point x="2269.85" y="0.0" type="line"/>
      <point x="1633.1" y="0.0" type="line"/>
      <point x="1633.1" y="52.46" type="line"/>
      <point x="1696.54" y="83.47" type="line"/>
      <point x="1699.83" y="468.95" type="line"/>
      <point x="1699.83" y="618.86" type="line" smooth="yes"/>
      <point x="1699.83" y="734.08"/>
      <point x="1628.22" y="796.61"/>
      <point x="1564.23" y="796.61" type="qcurve" smooth="yes"/>
      <point x="1504.82" y="796.61"/>
      <point x="1396.27" y="744.94"/>
      <point x="1371.77" y="710.87" type="qcurve"/>
      <point x="1373.49" y="696.58"/>
      <point x="1374.35" y="494.08"/>
      <point x="1374.35" y="475.97" type="qcurve"/>
      <point x="1374.63" y="87.46" type="line"/>
      <point x="1467.38" y="57.019999999999996" type="line"/>
      <point x="1467.38" y="0.0" type="line"/>
      <point x="841.13" y="0.0" type="line"/>
      <point x="841.13" y="53.03" type="line"/>
      <point x="915.3199999999999" y="83.47" type="line"/>
      <point x="918.1800000000001" y="502.2" type="line"/>
      <point x="918.1800000000001" y="633.05" type="line" smooth="yes"/>
      <point x="918.1800000000001" y="740.96"/>
      <point x="852.87" y="796.18"/>
      <point x="784.44" y="796.61" type="qcurve" smooth="yes"/>
      <point x="719.73" y="797.04"/>
      <point x="616.34" y="744.94"/>
      <point x="592.7" y="714.88" type="qcurve"/>
      <point x="592.27" y="517.1" type="line"/>
      <point x="594.27" y="87.46" type="line"/>
      <point x="678.42" y="57.019999999999996" type="line"/>
      <point x="678.42" y="0.0" type="line"/>
    </contour>
  </outline>
</glyph>
<glyph name="o" format="2">
  <advance width="1435"/>
  <unicode hex="006F"/>
  <outline>
    <contour>
      <point x="39.2" y="485.0" type="qcurve" smooth="yes"/>
      <point x="39.2" y="726.72"/>
      <point x="418.19" y="998.16"/>
      <point x="717.09" y="998.16" type="qcurve" smooth="yes"/>
      <point x="1016.42" y="998.16"/>
      <point x="1395.85" y="736.0"/>
      <point x="1395.85" y="491.0" type="qcurve" smooth="yes"/>
      <point x="1395.85" y="251.7"/>
      <point x="1022.4300000000001" y="-20.32"/>
      <point x="721.67" y="-20.32" type="qcurve" smooth="yes"/>
      <point x="420.2" y="-20.32"/>
      <point x="39.2" y="243.82"/>
    </contour>
    <contour>
      <point x="531.21" y="489.88" type="qcurve" smooth="yes"/>
      <point x="531.21" y="175.4"/>
      <point x="634.77" y="39.96"/>
      <point x="715.52" y="39.96" type="qcurve" smooth="yes"/>
      <point x="801.71" y="39.96"/>
      <point x="904.41" y="189.11"/>
      <point x="904.41" y="481.0" type="qcurve" smooth="yes"/>
      <point x="904.41" y="807.55"/>
      <point x="798.5699999999999" y="928.16"/>
      <point x="716.81" y="928.16" type="qcurve" smooth="yes"/>
      <point x="630.9" y="928.16"/>
      <point x="531.21" y="816.13"/>
    </contour>
  </outline>
</glyph>
<glyph name="p" format="2">
  <advance width="1490"/>
  <unicode hex="0070"/>
  <outline>
    <contour>
      <point x="17.23" y="-460.0" type="line"/>
      <point x="17.23" y="-405.13" type="line"/>
      <point x="130.67000000000002" y="-370.13" type="line"/>
      <point x="132.67000000000002" y="389.0" type="line"/>
      <point x="130.67000000000002" y="850.7" type="line"/>
      <point x="21.919999999999998" y="885.7" type="line"/>
      <point x="21.919999999999998" y="943.0" type="line"/>
      <point x="557.67" y="985.0" type="line"/>
      <point x="577.97" y="974.0" type="line"/>
      <point x="582.98" y="854.62" type="line"/>
      <point x="627.04" y="907.08"/>
      <point x="808.38" y="991.72"/>
      <point x="942.2" y="991.72" type="qcurve" smooth="yes"/>
      <point x="1169.03" y="991.72"/>
      <point x="1450.46" y="754.43"/>
      <point x="1450.46" y="504.3" type="qcurve" smooth="yes"/>
      <point x="1450.46" y="263.75"/>
      <point x="1132.44" y="-20.58"/>
      <point x="907.72" y="-20.58" type="qcurve" smooth="yes"/>
      <point x="787.04" y="-20.58"/>
      <point x="637.17" y="28.91"/>
      <point x="590.84" y="62.629999999999995" type="qcurve"/>
      <point x="592.84" y="-370.13" type="line"/>
      <point x="747.13" y="-405.13" type="line"/>
      <point x="747.13" y="-460.0" type="line"/>
    </contour>
    <contour>
      <point x="589.7" y="152.09" type="line"/>
      <point x="613.75" y="125.92"/>
      <point x="701.8299999999999" y="83.4"/>
      <point x="769.7" y="83.4" type="qcurve" smooth="yes"/>
      <point x="851.1800000000001" y="83.4"/>
      <point x="960.44" y="208.01999999999998"/>
      <point x="960.44" y="479.14" type="qcurve" smooth="yes"/>
      <point x="960.44" y="737.59"/>
      <point x="868.89" y="857.43"/>
      <point x="774.0" y="857.43" type="qcurve" smooth="yes"/>
      <point x="697.73" y="857.43"/>
      <point x="605.76" y="770.79"/>
      <point x="588.13" y="742.46" type="qcurve"/>
      <point x="588.98" y="411.01" type="line"/>
    </contour>
  </outline>
</glyph>
<glyph name="q" format="2">
  <advance width="1470"/>
  <unicode hex="0071"/>
  <outline>
    <contour>
      <point x="38.34" y="478.0" type="qcurve" smooth="yes"/>
      <point x="38.34" y="730.73"/>
      <point x="354.08" y="988.15"/>
      <point x="574.87" y="988.15" type="qcurve" smooth="yes"/>
      <point x="703.99" y="988.15"/>
      <point x="843.8199999999999" y="933.88"/>
      <point x="889.03" y="895.87" type="qcurve"/>
      <point x="948.6800000000001" y="979.7" type="line"/>
      <point x="1448.53" y="941.14" type="line"/>
      <point x="1448.53" y="883.98" type="line"/>
      <point x="1348.1" y="858.0" type="line"/>
      <point x="1346.81" y="406.06" type="line"/>
      <point x="1354.93" y="-370.7" type="line"/>
      <point x="1468.21" y="-405.7" type="line"/>
      <point x="1468.21" y="-460.0" type="line"/>
      <point x="767.17" y="-460.0" type="line"/>
      <point x="767.17" y="-400.0" type="line"/>
      <point x="889.49" y="-367.0" type="line"/>
      <point x="893.21" y="58.36" type="line"/>
      <point x="853.29" y="30.759999999999998"/>
      <point x="687.04" y="-13.3"/>
      <point x="584.05" y="-13.3" type="qcurve" smooth="yes"/>
      <point x="349.89" y="-13.3"/>
      <point x="38.34" y="211.0"/>
    </contour>
    <contour>
      <point x="525.49" y="479.54" type="qcurve" smooth="yes"/>
      <point x="525.49" y="225.35"/>
      <point x="626.31" y="82.55"/>
      <point x="720.89" y="82.55" type="qcurve" smooth="yes"/>
      <point x="785.05" y="82.55"/>
      <point x="876.1700000000001" y="139.91"/>
      <point x="890.9300000000001" y="186.64" type="qcurve"/>
      <point x="890.78" y="781.13" type="line" smooth="yes"/>
      <point x="874.01" y="819.01"/>
      <point x="789.22" y="873.63"/>
      <point x="714.51" y="873.63" type="qcurve" smooth="yes"/>
      <point x="627.79" y="873.63"/>
      <point x="525.49" y="740.2"/>
    </contour>
  </outline>
</glyph>
<glyph name="r" format="2">
  <advance width="1033"/>
  <unicode hex="0072"/>
  <anchor x="246.89" y="2.0" name="bottom"/>
  <outline>
    <contour>
      <point x="30.36" y="0.0" type="line"/>
      <point x="30.36" y="57.019999999999996" type="line"/>
      <point x="130.95999999999998" y="86.89" type="line"/>
      <point x="132.95999999999998" y="473.4" type="line"/>
      <point x="130.25" y="850.7" type="line"/>
      <point x="21.919999999999998" y="885.13" type="line"/>
      <point x="21.919999999999998" y="943.86" type="line"/>
      <point x="532.12" y="985.0" type="line"/>
      <point x="583.7" y="941.97" type="line"/>
      <point x="580.41" y="794.9" type="line"/>
      <point x="623.48" y="855.51"/>
      <point x="862.56" y="981.45"/>
      <point x="988.4743548387097" y="979.73" type="qcurve" smooth="yes"/>
      <point x="1026.85" y="979.73" type="line"/>
      <point x="1015.45" y="593.6" type="line"/>
      <point x="937.85" y="593.6" type="line"/>
      <point x="860.53" y="827.27" type="line"/>
      <point x="773.84" y="816.44"/>
      <point x="626.76" y="755.39"/>
      <point x="591.84" y="726.06" type="qcurve"/>
      <point x="590.98" y="476.25" type="line"/>
      <point x="592.98" y="86.89" type="line"/>
      <point x="717.15" y="57.019999999999996" type="line"/>
      <point x="717.15" y="0.0" type="line"/>
    </contour>
  </outline>
</glyph>
<glyph name="s" format="2">
  <advance width="1121"/>
  <unicode hex="0073"/>
  <outline>
    <contour>
      <point x="45.35" y="0.0" type="line"/>
      <point x="45.35" y="345.1" type="line"/>
      <point x="109.97999999999999" y="345.1" type="line"/>
      <point x="146.69" y="219.62" type="line" smooth="yes"/>
      <point x="178.3" y="122.85"/>
      <point x="377.37" y="29.7"/>
      <point x="500.83" y="29.7" type="qcurve" smooth="yes"/>
      <point x="609.12" y="29.7"/>
      <point x="711.36" y="80.7"/>
      <point x="711.36" y="139.71" type="qcurve" smooth="yes"/>
      <point x="711.36" y="193.01"/>
      <point x="562.02" y="264.86"/>
      <point x="415.39" y="322.3" type="qcurve" smooth="yes"/>
      <point x="203.95999999999998" y="398.72"/>
      <point x="53.81" y="556.0"/>
      <point x="53.81" y="680.03" type="qcurve" smooth="yes"/>
      <point x="53.81" y="818.32"/>
      <point x="318.42" y="999.16"/>
      <point x="561.68" y="999.16" type="qcurve" smooth="yes"/>
      <point x="679.31" y="999.16"/>
      <point x="845.47" y="951.82"/>
      <point x="889.34" y="924.23" type="qcurve"/>
      <point x="940.63" y="985.4" type="line"/>
      <point x="1000.4" y="985.4" type="line"/>
      <point x="1000.4" y="641.61" type="line"/>
      <point x="924.35" y="641.61" type="line"/>
      <point x="912.06" y="696.45" type="line" smooth="yes"/>
      <point x="887.04" y="803.89"/>
      <point x="715.8" y="936.71"/>
      <point x="594.81" y="936.71" type="qcurve" smooth="yes"/>
      <point x="486.53999999999996" y="936.71"/>
      <point x="407.72" y="886.0"/>
      <point x="407.72" y="846.12" type="qcurve" smooth="yes"/>
      <point x="407.72" y="792.84"/>
      <point x="522.7" y="715.29"/>
      <point x="702.54" y="661.4" type="qcurve" smooth="yes"/>
      <point x="915.42" y="591.84"/>
      <point x="1093.13" y="430.15"/>
      <point x="1093.13" y="301.0" type="qcurve" smooth="yes"/>
      <point x="1093.13" y="159.68"/>
      <point x="816.9300000000001" y="-27.73"/>
      <point x="578.27" y="-27.73" type="qcurve" smooth="yes"/>
      <point x="400.78" y="-27.73"/>
      <point x="188.9" y="23.16"/>
      <point x="143.86" y="43.75" type="qcurve"/>
      <point x="106.14" y="0.0" type="line"/>
    </contour>
  </outline>
</glyph>
<glyph name="u" format="2">
  <advance width="1534"/>
  <unicode hex="0075"/>
  <outline>
    <contour>
      <point x="18.9" y="885.13" type="line"/>
      <point x="18.04" y="943.0" type="line"/>
      <point x="462.26" y="980.71" type="line"/>
      <point x="533.17" y="980.71" type="line"/>
      <point x="581.36" y="929.12" type="line"/>
      <point x="579.36" y="509.5" type="line"/>
      <point x="579.36" y="337.26" type="line" smooth="yes"/>
      <point x="579.36" y="222.91"/>
      <point x="652.09" y="138.94"/>
      <point x="717.37" y="138.94" type="qcurve" smooth="yes"/>
      <point x="786.81" y="138.94"/>
      <point x="903.69" y="186.16"/>
      <point x="932.5" y="225.9" type="qcurve" smooth="yes"/>
      <point x="933.36" y="488.0" type="line"/>
      <point x="933.64" y="855.13" type="line"/>
      <point x="838.47" y="885.13" type="line"/>
      <point x="838.47" y="943.0" type="line"/>
      <point x="1292.76" y="976.99" type="line"/>
      <point x="1365.38" y="976.99" type="line"/>
      <point x="1407.68" y="928.56" type="line"/>
      <point x="1401.24" y="488.0" type="line"/>
      <point x="1402.38" y="111.45" type="line"/>
      <point x="1518.38" y="81.45" type="line"/>
      <point x="1518.38" y="21.29" type="line"/>
      <point x="1023.35" y="-12.71" type="line"/>
      <point x="963.77" y="34.29" type="line"/>
      <point x="942.76" y="134.49" type="line"/>
      <point x="885.39" y="73.2"/>
      <point x="645.97" y="-6.3"/>
      <point x="490.5" y="-6.3" type="qcurve" smooth="yes"/>
      <point x="321.37" y="-6.3"/>
      <point x="122.05" y="128.86"/>
      <point x="122.91" y="283.67" type="qcurve" smooth="yes"/>
      <point x="123.34" y="354.83"/>
      <point x="124.77" y="491.62"/>
      <point x="123.77" y="537.5" type="qcurve" smooth="yes"/>
      <point x="117.77" y="853.42" type="line"/>
    </contour>
  </outline>
</glyph>
<glyph name="v" format="2">
  <advance width="1189"/>
  <unicode hex="0076"/>
  <outline>
    <contour>
      <point x="-38.96" y="910.55" type="line"/>
      <point x="-38.96" y="970.0" type="line"/>
      <point x="685.5" y="970.0" type="line"/>
      <point x="685.5" y="910.55" type="line"/>
      <point x="575.38" y="880.25" type="line"/>
      <point x="683.15" y="575.04" type="line"/>
      <point x="813.41" y="230.21" type="line"/>
      <point x="926.6" y="552.59" type="line"/>
      <point x="1035.3600000000001" y="880.25" type="line"/>
      <point x="918.9300000000001" y="910.55" type="line"/>
      <point x="918.9300000000001" y="970.0" type="line"/>
      <point x="1230.92" y="970.0" type="line"/>
      <point x="1230.92" y="910.55" type="line"/>
      <point x="1112.09" y="884.25" type="line"/>
      <point x="990.59" y="534.42" type="line"/>
      <point x="822.12" y="1.1400000000000001" type="line"/>
      <point x="390.34000000000003" y="1.1400000000000001" type="line"/>
      <point x="225.44" y="463.72" type="line"/>
      <point x="61.45" y="881.25" type="line"/>
    </contour>
  </outline>
</glyph>
<glyph name="x" format="2">
  <advance width="1248"/>
  <unicode hex="0078"/>
  <outline>
    <contour>
      <point x="7.31" y="0.0" type="line"/>
      <point x="7.31" y="57.019999999999996" type="line"/>
      <point x="142.46" y="91.02" type="line"/>
      <point x="513.38" y="515.11" type="line"/>
      <point x="660.13" y="515.11" type="line"/>
      <point x="950.45" y="879.55" type="line"/>
      <point x="840.87" y="910.55" type="line"/>
      <point x="840.87" y="970.0" type="line"/>
      <point x="1157.4099999999999" y="970.0" type="line"/>
      <point x="1157.4099999999999" y="910.55" type="line"/>
      <point x="1036.94" y="877.55" type="line"/>
      <point x="699.71" y="466.67" type="line"/>
      <point x="559.23" y="466.67" type="line"/>
      <point x="239.65" y="93.02" type="line"/>
      <point x="365.85" y="57.019999999999996" type="line"/>
      <point x="365.85" y="0.0" type="line"/>
    </contour>
    <contour>
      <point x="13.17" y="910.55" type="line"/>
      <point x="13.17" y="970.0" type="line"/>
      <point x="704.87" y="970.0" type="line"/>
      <point x="704.87" y="910.55" type="line"/>
      <point x="624.2" y="875.26" type="line"/>
      <point x="848.74" y="529.6" type="line"/>
      <point x="1140.12" y="93.02" type="line"/>
      <point x="1243.13" y="57.019999999999996" type="line"/>
      <point x="1243.13" y="0.0" type="line"/>
      <point x="523.25" y="0.0" type="line"/>
      <point x="523.25" y="57.019999999999996" type="line"/>
      <point x="615.5" y="88.74" type="line"/>
      <point x="393.55" y="437.94" type="line"/>
      <point x="100.43" y="875.55" type="line"/>
    </contour>
  </outline>
</glyph>
<glyph name="braceright" format="2">
  <advance width="725"/>
  <unicode hex="007D"/>
  <outline>
    <contour>
      <point x="33.1" y="-107.41370967741935" type="qcurve"/>
      <point x="33.1" y="-76.58" type="line"/>
      <point x="63.1" y="-79.15"/>
      <point x="146.1" y="-85.0"/>
      <point x="174.56" y="-85.0" type="qcurve" smooth="yes"/>
      <point x="253.32" y="-85.0"/>
      <point x="312.76" y="14.629999999999999"/>
      <point x="312.76" y="91.66" type="qcurve" smooth="yes"/>
      <point x="312.76" y="200.6"/>
      <point x="116.76" y="472.0"/>
      <point x="116.76" y="561.74" type="qcurve" smooth="yes"/>
      <point x="116.76" y="649.0"/>
      <point x="219.77" y="730.42"/>
      <point x="340.91" y="748.0" type="qcurve"/>
      <point x="220.63" y="767.44"/>
      <point x="116.76" y="842.0"/>
      <point x="116.76" y="909.12" type="qcurve" smooth="yes"/>
      <point x="116.76" y="994.0"/>
      <point x="242.61290322580646" y="1196.0"/>
      <point x="242.61290322580646" y="1291.4" type="qcurve" smooth="yes"/>
      <point x="242.61290322580646" y="1381.7"/>
      <point x="176.17" y="1465.59"/>
      <point x="94.56" y="1465.59" type="qcurve" smooth="yes"/>
      <point x="76.56" y="1465.59"/>
      <point x="50.1" y="1463.73"/>
      <point x="31.1" y="1461.73" type="qcurve"/>
      <point x="31.1" y="1496.43" type="line"/>
      <point x="56.67" y="1500.29"/>
      <point x="263.08" y="1510.0"/>
      <point x="325.71" y="1510.0" type="qcurve" smooth="yes"/>
      <point x="441.71" y="1510.0"/>
      <point x="615.91" y="1377.7"/>
      <point x="615.91" y="1272.65" type="qcurve" smooth="yes"/>
      <point x="615.91" y="1165.4"/>
      <point x="466.91" y="974.0"/>
      <point x="466.91" y="888.17" type="qcurve" smooth="yes"/>
      <point x="466.91" y="812.0"/>
      <point x="571.48" y="752.72"/>
      <point x="637.91" y="755.0" type="qcurve" smooth="yes"/>
      <point x="697.8629032258065" y="757.0" type="line"/>
      <point x="697.8629032258065" y="721.0" type="line"/>
      <point x="474.76290322580644" y="708.0" type="line"/>
      <point x="474.76290322580644" y="666.0" type="line"/>
      <point x="474.76290322580644" y="546.0"/>
      <point x="684.91" y="261.4"/>
      <point x="685.91" y="160.4" type="qcurve" smooth="yes"/>
      <point x="686.91" y="33.4"/>
      <point x="518.71" y="-125.0"/>
      <point x="370.56290322580645" y="-125.0" type="qcurve" smooth="yes"/>
      <point x="298.54" y="-125.0"/>
      <point x="59.1" y="-115.87548387096774"/>
    </contour>
  </outline>
</glyph>
<glyph name="asciitilde" format="2">
  <advance width="914"/>
  <unicode hex="007E"/>
  <outline>
    <contour>
      <point x="42.03" y="557.32" type="line"/>
      <point x="69.2" y="642.32"/>
      <point x="247.76999999999998" y="828.71"/>
      <point x="319.72" y="839.0" type="qcurve"/>
      <point x="636.72" y="731.1" type="line"/>
      <point x="688.1800000000001" y="726.37"/>
      <point x="782.91" y="769.98"/>
      <point x="819.21" y="831.98" type="qcurve"/>
      <point x="880.64" y="781.63" type="line"/>
      <point x="846.1800000000001" y="658.79"/>
      <point x="689.65" y="480.64"/>
      <point x="631.27" y="480.1" type="qcurve"/>
      <point x="318.28" y="588.0" type="line"/>
      <point x="256.63" y="595.31"/>
      <point x="139.75" y="546.26"/>
      <point x="98.72" y="488.7" type="qcurve"/>
    </contour>
  </outline>
</glyph>
<glyph name="logicalnot" format="2">
  <advance width="919"/>
  <unicode hex="00AC"/>
  <outline>
    <contour>
      <point x="83.96000000000001" y="877.12" type="line"/>
      <point x="845.35" y="877.12" type="line"/>
      <point x="845.35" y="399.05" type="line"/>
      <point x="595.25" y="399.05" type="line"/>
      <point x="595.25" y="660.82" type="line"/>
      <point x="83.96000000000001" y="660.82" type="line"/>
    </contour>
  </outline>
</glyph>
<glyph name="registered" format="2">
  <advance width="1540"/>
  <unicode hex="00AE"/>
  <outline>
    <contour>
      <point x="48.0" y="914.0" type="qcurve" smooth="yes"/>
      <point x="48.0" y="1170.0"/>
      <point x="384.35" y="1516.0"/>
      <point x="641.97" y="1516.0" type="qcurve" smooth="yes"/>
      <point x="900.59" y="1516.0"/>
      <point x="1233.94" y="1188.0"/>
      <point x="1233.94" y="930.0" type="qcurve" smooth="yes"/>
      <point x="1233.94" y="645.0"/>
      <point x="906.02" y="284.0"/>
      <point x="650.4" y="284.0" type="qcurve" smooth="yes"/>
      <point x="387.35" y="284.0"/>
      <point x="48.0" y="636.0"/>
    </contour>
    <contour>
      <point x="109.17" y="910.84" type="qcurve" smooth="yes"/>
      <point x="109.17" y="663.99"/>
      <point x="417.22" y="336.0"/>
      <point x="649.4" y="336.0" type="qcurve" smooth="yes"/>
      <point x="878.58" y="336.0"/>
      <point x="1177.77" y="665.99"/>
      <point x="1177.77" y="923.84" type="qcurve" smooth="yes"/>
      <point x="1177.77" y="1144.12"/>
      <point x="881.58" y="1466.11"/>
      <point x="636.54" y="1466.11" type="qcurve" smooth="yes"/>
      <point x="411.79" y="1466.11"/>
      <point x="109.17" y="1138.12"/>
    </contour>
    <contour>
      <point x="308.6" y="532.0" type="line"/>
      <point x="308.88" y="570.3" type="line"/>
      <point x="351.6" y="590.3" type="line"/>
      <point x="357.6" y="953.8" type="line"/>
      <point x="352.47" y="1240.56" type="line"/>
      <point x="298.47" y="1262.56" type="line"/>
      <point x="300.47" y="1302.0" type="line"/>
      <point x="714.7" y="1302.0" type="line" smooth="yes"/>
      <point x="823.15" y="1302.0"/>
      <point x="965.2" y="1182.58"/>
      <point x="965.2" y="1072.3" type="qcurve" smooth="yes"/>
      <point x="965.2" y="988.81"/>
      <point x="826.01" y="874.0"/>
      <point x="712.7" y="874.0" type="qcurve" smooth="yes"/>
      <point x="679.7" y="874.0"/>
      <point x="575.6" y="876.0"/>
      <point x="552.6" y="881.0" type="qcurve"/>
      <point x="550.6" y="911.0" type="line"/>
      <point x="635.68" y="911.0" type="line" smooth="yes"/>
      <point x="681.4" y="911.0"/>
      <point x="717.2" y="974.3"/>
      <point x="717.2" y="1074.3" type="qcurve" smooth="yes"/>
      <point x="717.2" y="1166.3"/>
      <point x="682.69" y="1234.0"/>
      <point x="644.37" y="1234.0" type="qcurve" smooth="yes"/>
      <point x="614.3" y="1234.0" type="line"/>
      <point x="597.6" y="1231.28" type="line"/>
      <point x="591.6" y="951.0" type="line"/>
      <point x="598.6" y="582.3" type="line"/>
      <point x="638.9" y="562.3" type="line"/>
      <point x="638.9" y="532.0" type="line"/>
    </contour>
    <contour>
      <point x="619.4" y="892.0" type="line"/>
      <point x="842.7" y="935.0" type="line"/>
      <point x="950.3" y="663.0" type="line" smooth="yes"/>
      <point x="973.87" y="602.59"/>
      <point x="1020.91" y="582.0"/>
      <point x="1041.64" y="582.0" type="qcurve"/>
      <point x="1040.5" y="532.0" type="line"/>
      <point x="776.0" y="532.0" type="line"/>
      <point x="749.0" y="547.3" type="line"/>
    </contour>
  </outline>
</glyph>
<glyph name="guillemetright" format="2">
  <advance width="1357"/>
  <unicode hex="00BB"/>
  <outline>
    <contour>
      <point x="1295.94" y="576.85" type="line"/>
      <point x="1264.94" y="555.85"/>
      <point x="788.89" y="258.0"/>
      <point x="747.14" y="227.0" type="qcurve" smooth="yes"/>
      <point x="717.4" y="205.0"/>
      <point x="658.8" y="272.2"/>
      <point x="698.12" y="328.2" type="qcurve" smooth="yes"/>
      <point x="716.85" y="354.2"/>
      <point x="937.38" y="597.14"/>
      <point x="958.84" y="618.0" type="qcurve"/>
      <point x="941.1" y="641.15"/>
      <point x="726.41" y="873.39"/>
      <point x="699.1" y="907.1" type="qcurve" smooth="yes"/>
      <point x="662.78" y="952.81"/>
      <point x="710.25" y="1027.0"/>
      <point x="760.5799999999999" y="1000.0" type="qcurve" smooth="yes"/>
      <point x="811.91" y="972.0"/>
      <point x="1236.94" y="701.15"/>
      <point x="1295.94" y="658.15" type="qcurve"/>
    </contour>
    <contour>
      <point x="709.94" y="576.85" type="line"/>
      <point x="678.94" y="555.85"/>
      <point x="202.89" y="258.0"/>
      <point x="161.14" y="227.0" type="qcurve" smooth="yes"/>
      <point x="131.4" y="205.0"/>
      <point x="72.8" y="272.2"/>
      <point x="112.12" y="328.2" type="qcurve" smooth="yes"/>
      <point x="130.85" y="354.2"/>
      <point x="351.38" y="597.14"/>
      <point x="372.84000000000003" y="618.0" type="qcurve"/>
      <point x="355.1" y="641.15"/>
      <point x="140.41" y="873.39"/>
      <point x="113.1" y="907.1" type="qcurve" smooth="yes"/>
      <point x="76.78" y="952.81"/>
      <point x="124.25" y="1027.0"/>
      <point x="174.57999999999998" y="1000.0" type="qcurve" smooth="yes"/>
      <point x="225.91" y="972.0"/>
      <point x="650.94" y="701.15"/>
      <point x="709.94" y="658.15" type="qcurve"/>
    </contour>
  </outline>
</glyph>
<glyph name="AE" format="2">
  <advance width="2048"/>
  <unicode hex="00C6"/>
  <outline>
    <contour>
      <point x="-21.09" y="0.0" type="line"/>
      <point x="-21.09" y="53.72" type="line"/>
      <point x="157.31" y="86.15" type="line"/>
      <point x="384.35" y="606.59" type="line"/>
      <point x="754.23" y="1409.0" type="line"/>
      <point x="595.73" y="1448.42" type="line"/>
      <point x="595.73" y="1500.0" type="line"/>
      <point x="1947.25" y="1500.0" type="line"/>
      <point x="1947.25" y="1126.53" type="line"/>
      <point x="1879.48" y="1126.53" type="line"/>
      <point x="1771.02" y="1435.7" type="line"/>
      <point x="1423.44" y="1435.7" type="line"/>
      <point x="1382.1100000000001" y="1408.0" type="line"/>
      <point x="1383.67" y="784.0" type="line"/>
      <point x="1381.54" y="97.61" type="line"/>
      <point x="1424.58" y="69.61" type="line"/>
      <point x="1813.93" y="69.61" type="line"/>
      <point x="1953.98" y="410.1" type="line"/>
      <point x="2020.8899999999999" y="410.1" type="line"/>
      <point x="1987.73" y="0.0" type="line"/>
      <point x="795.1" y="0.0" type="line"/>
      <point x="795.1" y="52.72" type="line"/>
      <point x="902.94" y="83.72" type="line"/>
      <point x="904.94" y="784.0" type="line"/>
      <point x="902.94" y="1433.29" type="line"/>
      <point x="872.94" y="1443.46" type="line"/>
      <point x="481.43" y="592.46" type="line"/>
      <point x="270.11" y="89.43" type="line"/>
      <point x="438.21" y="53.72" type="line"/>
      <point x="438.21" y="0.0" type="line"/>
    </contour>
    <contour>
      <point x="464.26" y="600.0" type="line"/>
      <point x="494.56" y="666.0" type="line"/>
      <point x="753.94" y="661.15" type="line"/>
      <point x="753.94" y="602.0" type="line"/>
    </contour>
    <contour>
      <point x="753.94" y="661.15" type="line"/>
      <point x="937.54" y="668.0" type="line"/>
      <point x="939.54" y="602.0" type="line"/>
      <point x="753.94" y="602.0" type="line"/>
    </contour>
    <contour>
      <point x="1165.79" y="748.1" type="line"/>
      <point x="1164.93" y="818.74" type="line"/>
      <point x="1724.59" y="823.59" type="line"/>
      <point x="1807.28" y="999.4" type="line"/>
      <point x="1858.58" y="999.4" type="line"/>
      <point x="1858.58" y="565.6" type="line"/>
      <point x="1807.28" y="565.6" type="line"/>
      <point x="1724.59" y="748.41" type="line"/>
    </contour>
  </outline>
</glyph>
<glyph name="ae" format="2">
  <advance width="1897"/>
  <unicode hex="00E6"/>
  <outline>
    <contour>
      <point x="26.549999999999997" y="239.47" type="qcurve" smooth="yes"/>
      <point x="26.549999999999997" y="388.74"/>
      <point x="338.14" y="556.71"/>
      <point x="812.0799999999999" y="596.42" type="qcurve"/>
      <point x="816.8" y="528.71" type="line"/>
      <point x="571.4300000000001" y="499.69"/>
      <point x="469.61" y="361.86"/>
      <point x="470.18" y="280.84" type="qcurve" smooth="yes"/>
      <point x="470.75" y="177.9"/>
      <point x="537.5699999999999" y="106.54"/>
      <point x="597.11" y="106.54" type="qcurve" smooth="yes"/>
      <point x="659.36" y="106.54"/>
      <point x="747.98" y="162.39"/>
      <point x="786.04" y="218.38" type="qcurve"/>
      <point x="770.76" y="262.46"/>
      <point x="750.59" y="372.6"/>
      <point x="750.45" y="425.39" type="qcurve" smooth="yes"/>
      <point x="747.3199999999999" y="608.73" type="line" smooth="yes"/>
      <point x="745.3299999999999" y="772.78"/>
      <point x="633.05" y="907.72"/>
      <point x="515.61" y="907.72" type="qcurve" smooth="yes"/>
      <point x="437.09000000000003" y="907.72"/>
      <point x="339.32" y="867.84"/>
      <point x="323.74" y="853.4" type="qcurve"/>
      <point x="359.32" y="835.83"/>
      <point x="413.45" y="763.71"/>
      <point x="413.45" y="707.99" type="qcurve" smooth="yes"/>
      <point x="413.45" y="644.99"/>
      <point x="328.12" y="561.4"/>
      <point x="258.4" y="561.4" type="qcurve" smooth="yes"/>
      <point x="186.39" y="561.4"/>
      <point x="98.36" y="652.57"/>
      <point x="99.5" y="730.0" type="qcurve" smooth="yes"/>
      <point x="101.21000000000001" y="837.14"/>
      <point x="364.63" y="994.87"/>
      <point x="592.21" y="994.87" type="qcurve" smooth="yes"/>
      <point x="764.3199999999999" y="994.87"/>
      <point x="930.03" y="930.85"/>
      <point x="976.63" y="890.43" type="qcurve"/>
      <point x="979.64" y="890.43" type="line"/>
      <point x="1039.41" y="937.29"/>
      <point x="1232.82" y="998.73"/>
      <point x="1378.02" y="998.73" type="qcurve" smooth="yes"/>
      <point x="1575.24" y="998.73"/>
      <point x="1883.03" y="760.14"/>
      <point x="1891.76" y="555.0" type="qcurve"/>
      <point x="1893.47" y="483.84" type="line"/>
      <point x="1122.13" y="483.84" type="line"/>
      <point x="1122.13" y="558.3" type="line"/>
      <point x="1492.99" y="558.3" type="line"/>
      <point x="1492.56" y="800.82"/>
      <point x="1411.78" y="930.16"/>
      <point x="1343.6399999999999" y="930.16" type="qcurve" smooth="yes"/>
      <point x="1277.06" y="930.16"/>
      <point x="1196.73" y="821.29"/>
      <point x="1196.73" y="525.0" type="qcurve" smooth="yes"/>
      <point x="1196.73" y="246.0"/>
      <point x="1320.88" y="99.23"/>
      <point x="1445.8899999999999" y="99.23" type="qcurve" smooth="yes"/>
      <point x="1572.87" y="99.23"/>
      <point x="1769.09" y="211.53"/>
      <point x="1831.32" y="306.1" type="qcurve"/>
      <point x="1875.02" y="267.06" type="line"/>
      <point x="1821.52" y="149.68"/>
      <point x="1519.44" y="-20.18"/>
      <point x="1329.88" y="-20.18" type="qcurve" smooth="yes"/>
      <point x="1136.04" y="-20.18"/>
      <point x="881.73" y="81.03"/>
      <point x="829.3299999999999" y="152.68" type="qcurve"/>
      <point x="769.26" y="70.54"/>
      <point x="565.01" y="-18.29"/>
      <point x="407.46000000000004" y="-18.29" type="qcurve" smooth="yes"/>
      <point x="231.72" y="-18.29"/>
      <point x="26.549999999999997" y="98.71"/>
    </contour>
  </outline>
</glyph>
<glyph name="eth" format="2">
  <advance width="1410"/>
  <unicode hex="00F0"/>
  <outline>
    <contour>
      <point x="39.629999999999995" y="470.0" type="qcurve" smooth="yes"/>
      <point x="39.629999999999995" y="724.26"/>
      <point x="386.28999999999996" y="961.15"/>
      <point x="648.71" y="961.15" type="qcurve" smooth="yes"/>
      <point x="844.36" y="961.15"/>
      <point x="1018.86" y="742.26"/>
      <point x="1021.44" y="462.0" type="qcurve"/>
      <point x="904.86" y="463.72" type="line"/>
      <point x="885.2325806451613" y="732.5023387096774"/>
      <point x="762.1157258064516" y="897.41"/>
      <point x="700.3199999999999" y="898.7" type="qcurve" smooth="yes"/>
      <point x="629.46" y="899.99"/>
      <point x="531.21" y="802.3"/>
      <point x="531.21" y="484.0" type="qcurve" smooth="yes"/>
      <point x="531.21" y="162.65"/>
      <point x="620.72" y="42.11"/>
      <point x="695.59" y="41.25" type="qcurve" smooth="yes"/>
      <point x="782.49" y="40.39"/>
      <point x="880.61" y="172.95"/>
      <point x="880.61" y="475.82" type="qcurve" smooth="yes"/>
      <point x="880.61" y="904.15"/>
      <point x="603.71" y="1387.02"/>
      <point x="328.27" y="1488.3" type="qcurve"/>
      <point x="396.32" y="1550.0" type="line"/>
      <point x="894.42" y="1410.0"/>
      <point x="1360.9168548387097" y="883.0"/>
      <point x="1360.9168548387097" y="589.0" type="qcurve" smooth="yes"/>
      <point x="1360.9168548387097" y="278.6033064516129"/>
      <point x="986.6213709677419" y="-21.03"/>
      <point x="683.2513709677419" y="-21.03" type="qcurve" smooth="yes"/>
      <point x="406.54137096774195" y="-21.03"/>
      <point x="39.629999999999995" y="231.1"/>
    </contour>
    <contour>
      <point x="345.40370967741933" y="1178.11" type="line"/>
      <point x="1055.8137096774194" y="1495.3" type="line"/>
      <point x="1092.5037096774195" y="1412.25" type="line"/>
      <point x="382.52370967741933" y="1093.06" type="line"/>
    </contour>
  </outline>
</glyph>
<glyph name="thorn" format="2">
  <advance width="1493"/>
  <unicode hex="00FE"/>
  <outline>
    <contour>
      <point x="44.75" y="-460.0" type="line"/>
      <point x="44.75" y="-405.13" type="line"/>
      <point x="158.19" y="-370.13" type="line"/>
      <point x="160.19" y="389.0" type="line"/>
      <point x="162.17000000000002" y="1405.55" type="line"/>
      <point x="38.269999999999996" y="1441.41" type="line"/>
      <point x="38.269999999999996" y="1500.0" type="line"/>
      <point x="536.08" y="1506.3" type="line"/>
      <point x="569.49" y="1503.59" type="line"/>
      <point x="610.65" y="1467.0" type="line"/>
      <point x="610.5" y="859.78" type="line"/>
      <point x="651.55" y="913.96"/>
      <point x="833.75" y="991.72"/>
      <point x="980.9" y="991.72" type="qcurve" smooth="yes"/>
      <point x="1171.18" y="991.72"/>
      <point x="1453.04" y="750.13"/>
      <point x="1453.04" y="504.3" type="qcurve" smooth="yes"/>
      <point x="1453.04" y="263.75"/>
      <point x="1145.34" y="-16.28"/>
      <point x="929.22" y="-16.28" type="qcurve" smooth="yes"/>
      <point x="812.84" y="-16.28"/>
      <point x="662.54" y="28.91"/>
      <point x="618.36" y="62.629999999999995" type="qcurve"/>
      <point x="620.36" y="-370.13" type="line"/>
      <point x="783.25" y="-405.13" type="line"/>
      <point x="783.25" y="-460.0" type="line"/>
    </contour>
    <contour>
      <point x="617.22" y="160.69" type="line"/>
      <point x="639.12" y="131.07999999999998"/>
      <point x="726.34" y="96.3"/>
      <point x="783.89" y="96.3" type="qcurve" smooth="yes"/>
      <point x="862.79" y="96.3"/>
      <point x="963.02" y="198.13"/>
      <point x="963.02" y="484.3" type="qcurve" smooth="yes"/>
      <point x="963.02" y="745.33"/>
      <point x="874.23" y="848.55"/>
      <point x="781.77" y="848.55" type="qcurve" smooth="yes"/>
      <point x="719.78" y="848.55"/>
      <point x="631.71" y="782.21"/>
      <point x="613.79" y="747.62" type="qcurve"/>
      <point x="614.36" y="428.21" type="line"/>
    </contour>
  </outline>
</glyph>
<glyph name="idotless" format="2">
  <advance width="719"/>
  <unicode hex="0131"/>
  <outline>
    <contour>
      <point x="31.38" y="0.0" type="line"/>
      <point x="31.38" y="57.019999999999996" type="line"/>
      <point x="133.36" y="86.89" type="line"/>
      <point x="135.93" y="503.14" type="line"/>
      <point x="132.65" y="850.7" type="line"/>
      <point x="27.53" y="885.7" type="line"/>
      <point x="27.53" y="943.0" type="line"/>
      <point x="491.36" y="972.73" type="line"/>
      <point x="554.08" y="979.0" type="line"/>
      <point x="603.38" y="936.84" type="line"/>
      <point x="600.37" y="502.0" type="line"/>
      <point x="602.37" y="86.32" type="line"/>
      <point x="696.91" y="57.019999999999996" type="line"/>
      <point x="696.91" y="0.0" type="line"/>
    </contour>
  </outline>
</glyph>
<glyph name="kgreenlandic" format="2">
  <advance width="1382"/>
  <unicode hex="0138"/>
  <outline>
    <contour>
      <point x="29.5" y="0.0" type="line"/>
      <point x="29.5" y="57.019999999999996" type="line"/>
      <point x="141.56" y="88.03" type="line"/>
      <point x="142.42000000000002" y="482.0" type="line"/>
      <point x="136.43" y="867.1" type="line"/>
      <point x="19.81" y="905.25" type="line"/>
      <point x="19.81" y="970.0" type="line"/>
      <point x="685.52" y="970.0" type="line"/>
      <point x="685.52" y="900.39" type="line"/>
      <point x="602.31" y="867.67" type="line"/>
      <point x="603.45" y="535.95" type="line"/>
      <point x="603.87" y="88.6" type="line"/>
      <point x="702.75" y="57.019999999999996" type="line"/>
      <point x="702.75" y="0.0" type="line"/>
    </contour>
    <contour>
      <point x="529.13" y="393.16" type="line"/>
      <point x="501.83" y="458.18" type="line"/>
      <point x="1057.18" y="878.4" type="line"/>
      <point x="947.45" y="908.4" type="line"/>
      <point x="947.45" y="970.0" type="line"/>
      <point x="1349.65" y="970.0" type="line"/>
      <point x="1349.65" y="908.4" type="line"/>
      <point x="1203.07" y="878.4" type="line"/>
    </contour>
    <contour>
      <point x="659.77" y="515.67" type="line"/>
      <point x="1017.26" y="800.8" type="line"/>
      <point x="1382.38" y="86.6" type="line"/>
      <point x="1467.05" y="57.019999999999996" type="line"/>
      <point x="1467.05" y="0.0" type="line"/>
      <point x="845.05" y="0.0" type="line"/>
      <point x="841.9368548387097" y="52.45" type="line"/>
      <point x="889.9368548387097" y="84.16" type="line"/>
    </contour>
  </outline>
</glyph>
<glyph name="OE" format="2">
  <advance width="2192"/>
  <unicode hex="0152"/>
  <outline>
    <contour>
      <point x="47.33" y="747.0" type="qcurve" smooth="yes"/>
      <point x="47.33" y="1106.0"/>
      <point x="459.6" y="1516.87"/>
      <point x="783.71" y="1516.87" type="qcurve" smooth="yes"/>
      <point x="852.22" y="1516.87"/>
      <point x="973.63" y="1505.59"/>
      <point x="1022.9300000000001" y="1500.0" type="qcurve" smooth="yes"/>
      <point x="2090.2799999999997" y="1500.0" type="line"/>
      <point x="2090.2799999999997" y="1127.1" type="line"/>
      <point x="2022.51" y="1127.1" type="line"/>
      <point x="1914.05" y="1435.7" type="line"/>
      <point x="1548.96" y="1435.7" type="line"/>
      <point x="1501.05" y="1410.85" type="line"/>
      <point x="1499.76" y="784.0" type="line"/>
      <point x="1501.05" y="98.18" type="line"/>
      <point x="1542.69" y="70.75" type="line"/>
      <point x="1955.82" y="70.75" type="line"/>
      <point x="2099.29" y="410.1" type="line"/>
      <point x="2165.06" y="410.1" type="line"/>
      <point x="2133.61" y="0.0" type="line"/>
      <point x="1014.5699999999999" y="0.0" type="line" smooth="yes"/>
      <point x="935.31" y="-5.16"/>
      <point x="814.01" y="-14.44"/>
      <point x="781.7" y="-14.44" type="qcurve" smooth="yes"/>
      <point x="446.6" y="-14.44"/>
      <point x="47.33" y="395.0"/>
    </contour>
    <contour>
      <point x="571.92" y="778.0" type="qcurve" smooth="yes"/>
      <point x="571.92" y="225.45999999999998"/>
      <point x="696.1" y="51.87"/>
      <point x="818.09" y="51.87" type="qcurve" smooth="yes"/>
      <point x="927.21" y="51.87"/>
      <point x="992.77" y="84.34"/>
      <point x="1008.64" y="117.94" type="qcurve"/>
      <point x="1009.78" y="746.94" type="line"/>
      <point x="1002.3399999999999" y="1373.2" type="line"/>
      <point x="981.5799999999999" y="1413.26"/>
      <point x="880.78" y="1456.84"/>
      <point x="796.6" y="1456.84" type="qcurve" smooth="yes"/>
      <point x="691.39" y="1456.84"/>
      <point x="571.92" y="1292.0"/>
    </contour>
    <contour>
      <point x="1280.45" y="752.83" type="line"/>
      <point x="1280.45" y="818.74" type="line"/>
      <point x="1867.62" y="823.59" type="line"/>
      <point x="1951.45" y="999.4" type="line"/>
      <point x="2002.75" y="999.4" type="line"/>
      <point x="2002.75" y="565.6" type="line"/>
      <point x="1951.45" y="565.6" type="line"/>
      <point x="1867.62" y="748.41" type="line"/>
    </contour>
  </outline>
</glyph>
<glyph name="caron" format="2">
  <advance width="896"/>
  <unicode hex="02C7"/>
  <outline>
    <contour>
      <point x="449.0" y="1044.89" type="qcurve" smooth="yes"/>
      <point x="404.0" y="1044.89"/>
      <point x="349.83" y="1093.04"/>
      <point x="313.52" y="1149.9" type="qcurve" smooth="yes"/>
      <point x="151.68" y="1401.5" type="line"/>
      <point x="189.7" y="1433.95" type="line"/>
      <point x="449.0" y="1241.63" type="line"/>
      <point x="710.58" y="1433.95" type="line"/>
      <point x="744.32" y="1402.5" type="line"/>
      <point x="584.48" y="1149.9" type="line" smooth="yes"/>
      <point x="545.88" y="1088.61"/>
      <point x="494.0" y="1044.89"/>
    </contour>
  </outline>
</glyph>
<glyph name="breve" format="2">
  <advance width="896"/>
  <unicode hex="02D8"/>
  <outline>
    <contour>
      <point x="683.24" y="1337.82" type="qcurve"/>
      <point x="751.04" y="1329.65" type="line"/>
      <point x="733.45" y="1216.77"/>
      <point x="585.22" y="1031.31"/>
      <point x="449.0" y="1031.31" type="qcurve" smooth="yes"/>
      <point x="312.78" y="1031.31"/>
      <point x="167.54" y="1208.19"/>
      <point x="150.66" y="1328.36" type="qcurve"/>
      <point x="221.6" y="1337.82" type="line"/>
      <point x="249.18" y="1296.5"/>
      <point x="364.1" y="1214.32"/>
      <point x="454.73" y="1214.32" type="qcurve" smooth="yes"/>
      <point x="553.47" y="1214.32"/>
      <point x="659.37" y="1297.07"/>
    </contour>
  </outline>
</glyph>
<glyph name="hookabovecomb" format="2">
  <advance width="896"/>
  <unicode hex="0309"/>
  <outline>
    <contour>
      <point x="298.95" y="1004.02" type="line"/>
      <point x="298.95" y="1155.53" type="line"/>
      <point x="333.53" y="1171.44" type="line"/>
      <point x="348.56" y="1167.58"/>
      <point x="402.77" y="1160.72"/>
      <point x="426.22" y="1160.72" type="qcurve" smooth="yes"/>
      <point x="468.24" y="1160.72"/>
      <point x="516.0" y="1204.19"/>
      <point x="516.0" y="1239.51" type="qcurve" smooth="yes"/>
      <point x="516.0" y="1279.39"/>
      <point x="461.09" y="1322.13"/>
      <point x="407.88" y="1322.13" type="qcurve" smooth="yes"/>
      <point x="353.26" y="1322.13"/>
      <point x="250.03" y="1299.83"/>
      <point x="206.39" y="1284.24" type="qcurve"/>
      <point x="183.66" y="1335.98" type="line"/>
      <point x="224.82999999999998" y="1372.86"/>
      <point x="392.25" y="1430.31"/>
      <point x="485.06" y="1430.31" type="qcurve" smooth="yes"/>
      <point x="608.54" y="1430.31"/>
      <point x="731.66" y="1331.85"/>
      <point x="731.66" y="1249.79" type="qcurve" smooth="yes"/>
      <point x="731.66" y="1172.31"/>
      <point x="590.4" y="1073.83"/>
      <point x="467.05" y="1073.83" type="qcurve" smooth="yes"/>
      <point x="428.6" y="1073.83"/>
      <point x="387.57" y="1079.98"/>
      <point x="370.98" y="1083.41" type="qcurve"/>
      <point x="370.98" y="1004.02" type="line"/>
    </contour>
  </outline>
</glyph>
<glyph name="fraction" format="2">
  <advance width="385"/>
  <unicode hex="2044"/>
  <outline>
    <contour>
      <point x="-195.0" y="1.0" type="line"/>
      <point x="497.9" y="1533.0" type="line"/>
      <point x="593.46" y="1484.83" type="line"/>
      <point x="-100.44" y="-48.17" type="line"/>
    </contour>
  </outline>
</glyph>
<glyph name="commercialMinusSign" format="2">
  <advance width="1205"/>
  <unicode hex="2052"/>
  <outline>
    <contour>
      <point x="224.46" y="9.870000000000001" type="line"/>
      <point x="942.1" y="1519.0" type="line"/>
      <point x="998.95" y="1468.84" type="line"/>
      <point x="283.6" y="-36.0" type="line"/>
    </contour>
    <contour>
      <point x="668.8199999999999" y="204.01" type="qcurve" smooth="yes"/>
      <point x="668.8199999999999" y="294.3"/>
      <point x="796.54" y="430.02"/>
      <point x="894.83" y="430.02" type="qcurve" smooth="yes"/>
      <point x="995.12" y="430.02"/>
      <point x="1121.84" y="294.3"/>
      <point x="1121.84" y="204.01" type="qcurve" smooth="yes"/>
      <point x="1121.84" y="113.72"/>
      <point x="995.12" y="-22.0"/>
      <point x="894.83" y="-22.0" type="qcurve" smooth="yes"/>
      <point x="796.54" y="-22.0"/>
      <point x="668.8199999999999" y="113.72"/>
    </contour>
    <contour>
      <point x="72.89" y="1291.99" type="qcurve" smooth="yes"/>
      <point x="72.89" y="1382.28"/>
      <point x="199.61" y="1518.0"/>
      <point x="299.9" y="1518.0" type="qcurve" smooth="yes"/>
      <point x="399.19" y="1518.0"/>
      <point x="526.91" y="1382.28"/>
      <point x="526.91" y="1291.99" type="qcurve" smooth="yes"/>
      <point x="526.91" y="1201.7"/>
      <point x="399.19" y="1065.98"/>
      <point x="299.9" y="1065.98" type="qcurve" smooth="yes"/>
      <point x="199.61" y="1065.98"/>
      <point x="72.89" y="1201.7"/>
    </contour>
  </outline>
</glyph>
<glyph name="colonsign" format="2">
  <advance width="1033"/>
  <unicode hex="20A1"/>
  <outline>
    <contour>
      <point x="44.19" y="764.86" type="qcurve" smooth="yes"/>
      <point x="44.19" y="1124.31"/>
      <point x="374.72" y="1519.86"/>
      <point x="642.19" y="1519.86" type="qcurve" smooth="yes"/>
      <point x="763.5799999999999" y="1519.86"/>
      <point x="964.14" y="1362.2"/>
      <point x="1002.49" y="1213.4" type="qcurve"/>
      <point x="968.92" y="1174.43" type="line"/>
      <point x="925.11" y="1313.65"/>
      <point x="757.94" y="1453.47"/>
      <point x="686.77" y="1453.47" type="qcurve" smooth="yes"/>
      <point x="563.24" y="1453.47"/>
      <point x="473.25" y="1262.97"/>
      <point x="473.25" y="749.56" type="qcurve" smooth="yes"/>
      <point x="473.25" y="248.67000000000002"/>
      <point x="568.99" y="50.519999999999996"/>
      <point x="695.19" y="50.519999999999996" type="qcurve"/>
      <point x="789.13" y="50.519999999999996"/>
      <point x="948.01" y="179.98"/>
      <point x="994.03" y="276.71" type="qcurve"/>
      <point x="1029.19" y="229.88" type="line"/>
      <point x="970.4" y="133.38"/>
      <point x="773.45" y="-19.45"/>
      <point x="626.11" y="-19.45" type="qcurve" smooth="yes"/>
      <point x="400.55" y="-19.45"/>
      <point x="44.19" y="372.53"/>
    </contour>
    <contour>
      <point x="634.13" y="-121.0" type="line"/>
      <point x="651.13" y="13.0" type="line"/>
      <point x="651.13" y="13.0" type="line"/>
      <point x="747.13" y="805.0" type="line"/>
      <point x="791.73" y="792.0" type="line"/>
      <point x="701.73" y="7.0" type="line"/>
      <point x="701.73" y="7.0" type="line"/>
      <point x="688.73" y="-119.0" type="line"/>
    </contour>
    <contour>
      <point x="833.13" y="1595.0" type="line"/>
      <point x="885.73" y="1595.0" type="line"/>
      <point x="860.31" y="1393.37" type="line"/>
      <point x="860.31" y="1393.37" type="line"/>
      <point x="791.73" y="792.0" type="line"/>
      <point x="747.13" y="805.0" type="line"/>
      <point x="809.13" y="1426.2" type="line"/>
      <point x="809.13" y="1426.2" type="line"/>
    </contour>
    <contour>
      <point x="460.0" y="-129.0" type="line"/>
      <point x="490.0" y="86.0" type="line"/>
      <point x="494.0" y="84.0" type="line"/>
      <point x="581.0" y="780.0" type="line"/>
      <point x="621.03" y="764.0" type="line"/>
      <point x="529.03" y="37.0" type="line"/>
      <point x="532.03" y="35.0" type="line"/>
      <point x="515.03" y="-127.0" type="line"/>
    </contour>
    <contour>
      <point x="672.0" y="1606.0" type="line"/>
      <point x="726.03" y="1606.0" type="line"/>
      <point x="711.03" y="1480.0" type="line"/>
      <point x="711.03" y="1480.0" type="line"/>
      <point x="621.03" y="764.0" type="line"/>
      <point x="581.0" y="780.0" type="line"/>
      <point x="659.0" y="1494.0" type="line"/>
      <point x="659.0" y="1494.0" type="line"/>
    </contour>
  </outline>
</glyph>
<glyph name="naira" format="2">
  <advance width="1371"/>
  <unicode hex="20A6"/>
  <outline>
    <contour>
      <point x="52.3" y="0.0" type="line"/>
      <point x="52.3" y="50.14" type="line"/>
      <point x="167.95999999999998" y="84.57" type="line"/>
      <point x="171.95999999999998" y="702.27" type="line"/>
      <point x="173.95" y="1414.0" type="line"/>
      <point x="56.29" y="1448.0" type="line"/>
      <point x="56.29" y="1500.0" type="line"/>
      <point x="561.89" y="1500.0" type="line"/>
      <point x="849.56" y="932.4031451612904" type="line"/>
      <point x="1098.79" y="441.46" type="line"/>
      <point x="1095.94" y="826.66" type="line"/>
      <point x="1094.1" y="1414.0" type="line"/>
      <point x="969.4300000000001" y="1448.0" type="line"/>
      <point x="969.4300000000001" y="1500.0" type="line"/>
      <point x="1287.78" y="1500.0" type="line"/>
      <point x="1287.78" y="1448.0" type="line"/>
      <point x="1174.82" y="1414.0" type="line"/>
      <point x="1173.1" y="813.34" type="line"/>
      <point x="1174.67" y="-2.2800000000000002" type="line"/>
      <point x="828.01" y="-2.2800000000000002" type="line"/>
      <point x="474.53999999999996" y="749.46" type="line"/>
      <point x="241.95999999999998" y="1187.4" type="line"/>
      <point x="247.55" y="684.06" type="line"/>
      <point x="246.97" y="84.57" type="line"/>
      <point x="352.76" y="50.14" type="line"/>
      <point x="352.76" y="0.0" type="line"/>
    </contour>
    <contour>
      <point x="1302.24" y="618.2445161290323" type="line"/>
      <point x="1150.4" y="618.2445161290323" type="line"/>
      <point x="1150.4" y="622.7109677419355" type="line"/>
      <point x="719.6604032258065" y="622.7109677419355" type="line"/>
      <point x="714.8" y="672.6" type="line"/>
      <point x="1150.4" y="672.6" type="line"/>
      <point x="1150.4" y="673.2068548387097" type="line"/>
      <point x="1302.24" y="673.2068548387097" type="line"/>
    </contour>
    <contour>
      <point x="63.88" y="618.7958870967742" type="line"/>
      <point x="59.18" y="673.7768548387097" type="line"/>
      <point x="213.7" y="673.7768548387097" type="line"/>
      <point x="213.7" y="677.208629032258" type="line"/>
      <point x="712.65" y="677.208629032258" type="line"/>
      <point x="721.6231451612903" y="617.6168548387096" type="line"/>
      <point x="213.7" y="617.6168548387096" type="line"/>
      <point x="213.7" y="618.7958870967742" type="line"/>
    </contour>
    <contour>
      <point x="1307.94" y="943.9031451612904" type="line"/>
      <point x="1150.4" y="943.9031451612904" type="line"/>
      <point x="1150.4" y="939.64" type="line"/>
      <point x="589.74" y="939.64" type="line"/>
      <point x="570.41" y="1002.54" type="line"/>
      <point x="1150.4" y="1002.54" type="line"/>
      <point x="1150.4" y="998.2768548387097" type="line"/>
      <point x="1307.94" y="998.2768548387097" type="line"/>
    </contour>
    <contour>
      <point x="63.88" y="943.9031451612904" type="line" smooth="yes"/>
      <point x="59.18" y="999.4168548387097" type="line"/>
      <point x="215.41" y="999.4168548387097" type="line"/>
      <point x="215.41" y="998.24" type="line"/>
      <point x="573.42" y="998.24" type="line"/>
      <point x="586.3" y="943.94" type="line"/>
      <point x="215.41" y="943.94" type="line"/>
      <point x="215.41" y="943.9031451612904" type="line"/>
    </contour>
  </outline>
</glyph>
<glyph name="f_f" format="2">
  <advance width="1585"/>
  <unicode hex="FB00"/>
  <outline>
    <contour>
      <point x="49.55" y="0.0" type="line"/>
      <point x="49.55" y="54.74" type="line"/>
      <point x="141.24" y="89.74" type="line"/>
      <point x="153.39" y="502.0" type="line"/>
      <point x="147.25" y="842.16" type="line"/>
      <point x="28.38" y="867.31" type="line"/>
      <point x="28.38" y="934.46" type="line"/>
      <point x="146.82" y="950.46" type="line"/>
      <point x="145.95999999999998" y="1074.36" type="line" smooth="yes"/>
      <point x="143.81" y="1267.11"/>
      <point x="350.03999999999996" y="1466.86"/>
      <point x="537.56" y="1466.86" type="qcurve" smooth="yes"/>
      <point x="644.75" y="1466.86"/>
      <point x="791.86" y="1431.85"/>
      <point x="829.5799999999999" y="1408.57" type="qcurve" smooth="yes"/>
      <point x="874.85" y="1386.72" type="line"/>
      <point x="868.01" y="1273.85" type="line"/>
      <point x="855.15" y="1278.85" type="line" smooth="yes"/>
      <point x="820.13" y="1292.14"/>
      <point x="734.74" y="1311.58"/>
      <point x="692.5699999999999" y="1311.58" type="qcurve" smooth="yes"/>
      <point x="651.09" y="1311.58"/>
      <point x="602.43" y="1260.4"/>
      <point x="603.0" y="1202.93" type="qcurve" smooth="yes"/>
      <point x="605.28" y="943.86" type="line"/>
      <point x="924.1" y="944.01" type="line"/>
      <point x="923.24" y="1122.86" type="line" smooth="yes"/>
      <point x="921.95" y="1315.61"/>
      <point x="1127.32" y="1509.66"/>
      <point x="1314.84" y="1509.66" type="qcurve" smooth="yes"/>
      <point x="1422.03" y="1509.66"/>
      <point x="1585.52" y="1453.94"/>
      <point x="1618.26" y="1439.79" type="qcurve" smooth="yes"/>
      <point x="1652.13" y="1423.07" type="line"/>
      <point x="1645.29" y="1310.2" type="line"/>
      <point x="1633.57" y="1315.49" type="line" smooth="yes"/>
      <point x="1605.68" y="1328.51"/>
      <point x="1512.02" y="1354.38"/>
      <point x="1469.85" y="1354.38" type="qcurve" smooth="yes"/>
      <point x="1423.6399999999999" y="1354.38"/>
      <point x="1381.99" y="1308.18"/>
      <point x="1381.42" y="1256.3" type="qcurve" smooth="yes"/>
      <point x="1376.8600000000001" y="943.86" type="line"/>
      <point x="1575.99" y="943.86" type="line"/>
      <point x="1575.99" y="859.86" type="line"/>
      <point x="1382.56" y="857.86" type="line"/>
      <point x="1383.42" y="495.16" type="line"/>
      <point x="1388.58" y="89.17" type="line"/>
      <point x="1510.17" y="54.74" type="line"/>
      <point x="1510.17" y="0.0" type="line"/>
      <point x="850.25" y="0.0" type="line"/>
      <point x="850.25" y="54.74" type="line"/>
      <point x="918.52" y="89.74" type="line"/>
      <point x="928.39" y="502.0" type="line"/>
      <point x="923.6700000000001" y="842.16" type="line"/>
      <point x="908.25" y="860.43" type="line"/>
      <point x="605.28" y="857.86" type="line"/>
      <point x="606.14" y="495.16" type="line"/>
      <point x="611.3" y="89.17" type="line"/>
      <point x="701.49" y="54.74" type="line"/>
      <point x="701.49" y="0.0" type="line"/>
    </contour>
  </outline>
</glyph>
<glyph name="fl" format="2">
  <advance width="1514"/>
  <unicode hex="FB02"/>
  <outline>
    <contour>
      <point x="57.86" y="0.0" type="line"/>
      <point x="57.86" y="54.74" type="line"/>
      <point x="139.81" y="89.74" type="line"/>
      <point x="149.68" y="502.0" type="line"/>
      <point x="145.39" y="847.32" type="line"/>
      <point x="31.8" y="857.86" type="line"/>
      <point x="31.8" y="932.46" type="line"/>
      <point x="145.39" y="944.01" type="line"/>
      <point x="144.53" y="1122.86" type="line" smooth="yes"/>
      <point x="143.24" y="1315.61"/>
      <point x="348.61" y="1509.66"/>
      <point x="542.5799999999999" y="1509.66" type="qcurve" smooth="yes"/>
      <point x="625.85" y="1509.66"/>
      <point x="749.3299999999999" y="1501.66"/>
      <point x="792.48" y="1491.67" type="qcurve" smooth="yes"/>
      <point x="819.23" y="1486.24" type="line"/>
      <point x="1304.95" y="1512.57" type="line"/>
      <point x="1345.83" y="1512.57" type="line"/>
      <point x="1390.84" y="1465.0" type="line"/>
      <point x="1390.26" y="503.63" type="line"/>
      <point x="1393.12" y="87.46" type="line"/>
      <point x="1499.55" y="57.019999999999996" type="line"/>
      <point x="1499.55" y="0.0" type="line"/>
      <point x="832.19" y="0.0" type="line"/>
      <point x="832.19" y="57.019999999999996" type="line"/>
      <point x="928.81" y="87.46" type="line"/>
      <point x="931.95" y="501.35" type="line"/>
      <point x="922.81" y="1352.29" type="line"/>
      <point x="840.7" y="1358.3" type="line" smooth="yes"/>
      <point x="810.92" y="1362.44"/>
      <point x="734.92" y="1371.15"/>
      <point x="697.01" y="1371.15" type="qcurve" smooth="yes"/>
      <point x="650.35" y="1371.15"/>
      <point x="608.98" y="1308.75"/>
      <point x="608.41" y="1256.3" type="qcurve" smooth="yes"/>
      <point x="602.71" y="943.86" type="line"/>
      <point x="785.88" y="943.86" type="line"/>
      <point x="785.88" y="859.86" type="line"/>
      <point x="603.85" y="857.86" type="line"/>
      <point x="604.71" y="495.16" type="line"/>
      <point x="609.87" y="89.17" type="line"/>
      <point x="708.09" y="54.74" type="line"/>
      <point x="708.09" y="0.0" type="line"/>
    </contour>
  </outline>
</glyph>
<glyph name="f_f_i" format="2">
  <advance width="2282"/>
  <unicode hex="FB03"/>
  <outline>
    <contour>
      <point x="49.55" y="0.0" type="line"/>
      <point x="49.55" y="54.74" type="line"/>
      <point x="141.24" y="89.74" type="line"/>
      <point x="153.39" y="502.0" type="line"/>
      <point x="147.25" y="842.16" type="line"/>
      <point x="28.38" y="867.31" type="line"/>
      <point x="28.38" y="934.46" type="line"/>
      <point x="146.82" y="950.46" type="line"/>
      <point x="145.95999999999998" y="1074.36" type="line" smooth="yes"/>
      <point x="143.81" y="1267.11"/>
      <point x="350.03999999999996" y="1466.86"/>
      <point x="537.56" y="1466.86" type="qcurve" smooth="yes"/>
      <point x="644.75" y="1466.86"/>
      <point x="791.86" y="1431.85"/>
      <point x="829.5799999999999" y="1408.57" type="qcurve" smooth="yes"/>
      <point x="874.85" y="1386.72" type="line"/>
      <point x="868.01" y="1273.85" type="line"/>
      <point x="842.61" y="1285.12" type="line" smooth="yes"/>
      <point x="813.29" y="1296.7"/>
      <point x="734.74" y="1311.58"/>
      <point x="692.5699999999999" y="1311.58" type="qcurve" smooth="yes"/>
      <point x="651.09" y="1311.58"/>
      <point x="602.43" y="1260.4"/>
      <point x="603.0" y="1202.93" type="qcurve" smooth="yes"/>
      <point x="605.28" y="943.86" type="line"/>
      <point x="924.1" y="944.01" type="line"/>
      <point x="923.24" y="1122.86" type="line" smooth="yes"/>
      <point x="921.95" y="1315.61"/>
      <point x="1127.32" y="1509.66"/>
      <point x="1314.84" y="1509.66" type="qcurve" smooth="yes"/>
      <point x="1422.03" y="1509.66"/>
      <point x="1567.85" y="1465.91"/>
      <point x="1606.8600000000001" y="1444.92" type="qcurve" smooth="yes"/>
      <point x="1652.13" y="1417.37" type="line"/>
      <point x="1633.8899999999999" y="1310.2" type="line"/>
      <point x="1608.49" y="1322.33" type="line" smooth="yes"/>
      <point x="1580.03" y="1336.49"/>
      <point x="1500.62" y="1354.38"/>
      <point x="1458.45" y="1354.38" type="qcurve" smooth="yes"/>
      <point x="1417.94" y="1354.38"/>
      <point x="1375.15" y="1308.18"/>
      <point x="1375.15" y="1256.3" type="qcurve" smooth="yes"/>
      <point x="1376.8600000000001" y="943.86" type="line"/>
      <point x="2054.26" y="972.73" type="line"/>
      <point x="2116.98" y="979.0" type="line"/>
      <point x="2166.2799999999997" y="936.84" type="line"/>
      <point x="2163.27" y="502.0" type="line"/>
      <point x="2165.27" y="86.32" type="line"/>
      <point x="2259.81" y="57.019999999999996" type="line"/>
      <point x="2259.81" y="0.0" type="line"/>
      <point x="1615.94" y="0.0" type="line"/>
      <point x="1615.94" y="57.019999999999996" type="line"/>
      <point x="1696.26" y="86.89" type="line"/>
      <point x="1698.83" y="503.14" type="line"/>
      <point x="1694.69" y="850.7" type="line"/>
      <point x="1660.26" y="860.72" type="line"/>
      <point x="1382.56" y="857.86" type="line"/>
      <point x="1383.42" y="495.16" type="line"/>
      <point x="1388.58" y="89.17" type="line"/>
      <point x="1487.94" y="54.74" type="line"/>
      <point x="1487.94" y="0.0" type="line"/>
      <point x="850.25" y="0.0" type="line"/>
      <point x="850.25" y="54.74" type="line"/>
      <point x="918.52" y="89.74" type="line"/>
      <point x="928.39" y="502.0" type="line"/>
      <point x="923.24" y="858.72" type="line"/>
      <point x="605.28" y="857.86" type="line"/>
      <point x="606.14" y="495.16" type="line"/>
      <point x="611.3" y="89.17" type="line"/>
      <point x="701.49" y="54.74" type="line"/>
      <point x="701.49" y="0.0" type="line"/>
    </contour>
    <contour>
      <point x="1682.54" y="1241.33" type="qcurve" smooth="yes"/>
      <point x="1682.54" y="1336.04"/>
      <point x="1812.69" y="1480.17"/>
      <point x="1925.98" y="1480.17" type="qcurve" smooth="yes"/>
      <point x="2036.7" y="1480.17"/>
      <point x="2174.85" y="1345.18"/>
      <point x="2174.42" y="1241.33" type="qcurve" smooth="yes"/>
      <point x="2174.42" y="1155.62"/>
      <point x="2042.7" y="1019.49"/>
      <point x="1927.98" y="1019.49" type="qcurve" smooth="yes"/>
      <point x="1817.69" y="1019.49"/>
      <point x="1682.54" y="1155.05"/>
    </contour>
  </outline>
</glyph>
<glyph name="acutecombstack.case" format="2">
  <advance width="1024"/>
  <outline>
    <contour>
      <point x="755.33" y="1771.69" type="qcurve" smooth="yes"/>
      <point x="748.02" y="1716.39"/>
      <point x="638.89" y="1658.1"/>
      <point x="563.73" y="1646.11" type="qcurve" smooth="yes"/>
      <point x="207.41" y="1592.0" type="line"/>
      <point x="188.26" y="1659.23" type="line"/>
      <point x="443.03" y="1839.64" type="line" smooth="yes"/>
      <point x="501.62" y="1884.34"/>
      <point x="600.67" y="1923.54"/>
      <point x="649.2" y="1918.81" type="qcurve" smooth="yes"/>
      <point x="707.2" y="1910.21"/>
      <point x="760.92" y="1821.68"/>
    </contour>
  </outline>
</glyph>
<glyph name="diagonalbarO" format="2">
  <advance width="831"/>
  <outline>
    <contour>
      <point x="94.76" y="-125.0" type="line"/>
      <point x="156.24" y="64.0" type="line"/>
      <point x="158.66" y="63.43" type="line"/>
      <point x="315.22" y="453.76" type="line"/>
      <point x="384.53999999999996" y="442.76" type="line"/>
      <point x="230.71" y="56.0" type="line"/>
      <point x="232.56" y="56.0" type="line"/>
      <point x="176.52" y="-125.0" type="line"/>
    </contour>
    <contour>
      <point x="649.49" y="1620.0" type="line"/>
      <point x="732.24" y="1620.0" type="line"/>
      <point x="676.62" y="1453.0" type="line"/>
      <point x="674.77" y="1453.0" type="line"/>
      <point x="552.69" y="1143.8600000000001" type="line"/>
      <point x="483.37" y="1154.8600000000001" type="line"/>
      <point x="601.3" y="1462.0" type="line"/>
      <point x="598.88" y="1462.0" type="line"/>
    </contour>
  </outline>
</glyph>
<glyph name="diagonalbaro" format="2">
  <advance width="512"/>
  <outline>
    <contour>
      <point x="-21.18" y="-112.75" type="line"/>
      <point x="35.59" y="31.44" type="line"/>
      <point x="38.17" y="30.3" type="line"/>
      <point x="232.99" y="579.58" type="line"/>
      <point x="315.72" y="562.97" type="line"/>
      <point x="119.75" y="16.43" type="line"/>
      <point x="122.33" y="15.0" type="line"/>
      <point x="78.28999999999999" y="-114.46" type="line"/>
    </contour>
    <contour>
      <point x="437.57" y="1173.6" type="line"/>
      <point x="537.18" y="1173.6" type="line"/>
      <point x="461.40999999999997" y="956.3" type="line"/>
      <point x="459.4" y="957.16" type="line"/>
      <point x="315.72" y="562.97" type="line"/>
      <point x="232.99" y="579.58" type="line"/>
      <point x="373.24" y="979.73" type="line"/>
      <point x="370.66" y="980.3" type="line"/>
    </contour>
  </outline>
</glyph>
<glyph name="dotbelowcomb.case" format="2">
  <advance width="896"/>
  <outline>
    <contour>
      <point x="309.61" y="-224.22" type="qcurve" smooth="yes"/>
      <point x="309.61" y="-143.65"/>
      <point x="402.91" y="-53.489999999999995"/>
      <point x="485.05" y="-53.489999999999995" type="qcurve" smooth="yes"/>
      <point x="562.76" y="-53.489999999999995"/>
      <point x="660.49" y="-151.65"/>
      <point x="660.49" y="-224.22" type="qcurve" smooth="yes"/>
      <point x="660.49" y="-306.07"/>
      <point x="569.19" y="-397.23"/>
      <point x="485.05" y="-397.23" type="qcurve" smooth="yes"/>
      <point x="406.91" y="-397.23"/>
      <point x="309.61" y="-301.64"/>
    </contour>
  </outline>
</glyph>
<glyph name="eight.lc" format="2">
  <advance width="1257"/>
  <outline>
    <contour>
      <point x="58.769999999999996" y="315.25" type="qcurve" smooth="yes"/>
      <point x="63.07" y="471.94"/>
      <point x="325.18" y="672.76"/>
      <point x="541.87" y="727.8" type="qcurve"/>
      <point x="616.14" y="686.73" type="line"/>
      <point x="478.13" y="626.98"/>
      <point x="302.11" y="433.21"/>
      <point x="302.11" y="308.32" type="qcurve" smooth="yes"/>
      <point x="302.11" y="180.59"/>
      <point x="469.96" y="59.34"/>
      <point x="615.25" y="59.34" type="qcurve" smooth="yes"/>
      <point x="753.69" y="59.34"/>
      <point x="937.14" y="191.73000000000002"/>
      <point x="937.14" y="306.3" type="qcurve" smooth="yes"/>
      <point x="937.14" y="410.47"/>
      <point x="783.75" y="542.07"/>
      <point x="573.66" y="621.08" type="qcurve" smooth="yes"/>
      <point x="356.71" y="703.09"/>
      <point x="170.79" y="882.08"/>
      <point x="176.8" y="1029.41" type="qcurve" smooth="yes"/>
      <point x="182.38" y="1177.56"/>
      <point x="448.78999999999996" y="1353.55"/>
      <point x="676.97" y="1353.55" type="qcurve" smooth="yes"/>
      <point x="886.72" y="1353.55"/>
      <point x="1121.12" y="1196.85"/>
      <point x="1120.54" y="1071.54" type="qcurve" smooth="yes"/>
      <point x="1119.96" y="945.13"/>
      <point x="918.8199999999999" y="776.99"/>
      <point x="744.25" y="722.02" type="qcurve"/>
      <point x="657.69" y="761.66" type="line"/>
      <point x="787.17" y="821.11"/>
      <point x="910.5699999999999" y="976.31"/>
      <point x="908.42" y="1072.2" type="qcurve" smooth="yes"/>
      <point x="906.7" y="1166.35"/>
      <point x="775.42" y="1262.19"/>
      <point x="669.12" y="1262.19" type="qcurve" smooth="yes"/>
      <point x="565.55" y="1262.19"/>
      <point x="425.13" y="1163.94"/>
      <point x="425.13" y="1073.78" type="qcurve" smooth="yes"/>
      <point x="425.13" y="985.62"/>
      <point x="565.37" y="872.18"/>
      <point x="773.7" y="794.33" type="qcurve" smooth="yes"/>
      <point x="982.62" y="716.62"/>
      <point x="1202.33" y="525.28"/>
      <point x="1202.33" y="364.85" type="qcurve" smooth="yes"/>
      <point x="1202.33" y="192.53"/>
      <point x="885.3199999999999" y="-26.59"/>
      <point x="610.83" y="-26.59" type="qcurve" smooth="yes"/>
      <point x="333.03" y="-26.59"/>
      <point x="54.04" y="151.69"/>
    </contour>
  </outline>
</glyph>
<glyph name="eight.tab" format="2">
  <advance width="1430"/>
  <outline>
    <contour>
      <point x="92.77" y="367.23" type="qcurve" smooth="yes"/>
      <point x="92.77" y="529.49"/>
      <point x="374.845" y="748.78"/>
      <point x="620.0375" y="824.78" type="qcurve"/>
      <point x="668.2657258064517" y="801.6890322580646" type="line"/>
      <point x="575.1908870967742" y="731.9790322580645"/>
      <point x="423.94862903225805" y="468.29"/>
      <point x="423.94862903225805" y="303.29" type="qcurve" smooth="yes"/>
      <point x="423.94862903225805" y="154.29"/>
      <point x="556.895" y="37.56"/>
      <point x="675.9353225806452" y="37.56" type="qcurve" smooth="yes"/>
      <point x="798.5054032258065" y="37.56"/>
      <point x="940.3027419354838" y="145.99"/>
      <point x="940.3027419354838" y="271.99" type="qcurve" smooth="yes"/>
      <point x="940.3027419354838" y="399.99"/>
      <point x="759.3696774193548" y="597.7"/>
      <point x="593.9646774193548" y="676.99" type="qcurve" smooth="yes"/>
      <point x="377.475564516129" y="779.27"/>
      <point x="188.24153225806452" y="983.69"/>
      <point x="191.67153225806453" y="1151.3" type="qcurve" smooth="yes"/>
      <point x="195.10153225806454" y="1325.69"/>
      <point x="448.62854838709677" y="1515.26"/>
      <point x="707.6154838709678" y="1515.26" type="qcurve" smooth="yes"/>
      <point x="961.9569354838709" y="1515.26"/>
      <point x="1209.8157258064516" y="1362.7"/>
      <point x="1209.8157258064516" y="1208.69" type="qcurve" smooth="yes"/>
      <point x="1209.8157258064516" y="1062.3957258064515"/>
      <point x="959.2179838709677" y="874.449435483871"/>
      <point x="773.751935483871" y="834.5768548387097" type="qcurve"/>
      <point x="718.4854838709678" y="850.67" type="line"/>
      <point x="838.4785483870967" y="922.82"/>
      <point x="939.8257258064516" y="1123.69"/>
      <point x="939.8257258064516" y="1236.69" type="qcurve" smooth="yes"/>
      <point x="939.8257258064516" y="1362.69"/>
      <point x="824.2018548387096" y="1458.51"/>
      <point x="719.6041129032258" y="1458.51" type="qcurve" smooth="yes"/>
      <point x="618.6804838709677" y="1458.51"/>
      <point x="532.0615322580645" y="1386.72"/>
      <point x="532.0615322580645" y="1283.85" type="qcurve" smooth="yes"/>
      <point x="532.0615322580645" y="1162.69"/>
      <point x="666.565" y="1011.39"/>
      <point x="860.128629032258" y="928.39" type="qcurve" smooth="yes"/>
      <point x="1060.2622580645161" y="843.39"/>
      <point x="1326.6599999999999" y="618.79"/>
      <point x="1326.6599999999999" y="428.79" type="qcurve" smooth="yes"/>
      <point x="1326.6599999999999" y="221.79"/>
      <point x="1012.9679032258064" y="-17.31"/>
      <point x="699.5013709677419" y="-17.31" type="qcurve" smooth="yes"/>
      <point x="398.4736290322581" y="-17.31"/>
      <point x="92.77" y="187.81"/>
    </contour>
  </outline>
</glyph>
<glyph name="engn" format="2">
  <advance width="1508"/>
  <outline>
    <contour>
      <point x="29.07" y="0.0" type="line"/>
      <point x="29.07" y="57.019999999999996" type="line"/>
      <point x="130.95999999999998" y="87.46" type="line"/>
      <point x="133.95999999999998" y="504.0" type="line"/>
      <point x="128.95999999999998" y="850.7" type="line"/>
      <point x="21.919999999999998" y="885.7" type="line"/>
      <point x="21.919999999999998" y="943.86" type="line"/>
      <point x="540.58" y="985.0" type="line"/>
      <point x="578.83" y="961.46" type="line"/>
      <point x="580.12" y="789.74" type="line"/>
      <point x="629.0699999999999" y="855.94"/>
      <point x="852.75" y="990.15"/>
      <point x="1021.5799999999999" y="990.15" type="qcurve" smooth="yes"/>
      <point x="1212.18" y="990.15"/>
      <point x="1387.77" y="811.36"/>
      <point x="1387.77" y="679.87" type="qcurve" smooth="yes"/>
      <point x="1387.77" y="642.29"/>
      <point x="1389.34" y="604.72"/>
      <point x="1389.77" y="544.95" type="qcurve" smooth="yes"/>
      <point x="1388.9099999999999" y="0.0" type="line"/>
      <point x="915.75" y="0.0" type="line"/>
      <point x="918.61" y="469.95" type="line"/>
      <point x="919.1800000000001" y="619.29" type="line" smooth="yes"/>
      <point x="919.75" y="730.21"/>
      <point x="859.04" y="795.75"/>
      <point x="782.5799999999999" y="795.75" type="qcurve" smooth="yes"/>
      <point x="716.72" y="795.75"/>
      <point x="617.2" y="733.76"/>
      <point x="592.27" y="709.29" type="qcurve"/>
      <point x="591.84" y="471.95" type="line"/>
      <point x="594.7" y="87.46" type="line"/>
      <point x="689.17" y="57.019999999999996" type="line"/>
      <point x="689.17" y="0.0" type="line"/>
    </contour>
  </outline>
</glyph>
<glyph name="five.tab" format="2">
  <advance width="1352"/>
  <outline>
    <contour>
      <point x="8.46" y="125.61" type="qcurve"/>
      <point x="59.32" y="201.2" type="line"/>
      <point x="116.94879032258065" y="139.62"/>
      <point x="310.2979032258064" y="77.13"/>
      <point x="409.88370967741935" y="73.69" type="qcurve" smooth="yes"/>
      <point x="576.6495161290322" y="70.25"/>
      <point x="753.358629032258" y="273.32"/>
      <point x="753.358629032258" y="459.76" type="qcurve" smooth="yes"/>
      <point x="753.358629032258" y="623.45"/>
      <point x="506.41999999999996" y="781.54"/>
      <point x="272.62" y="755.0" type="qcurve" smooth="yes"/>
      <point x="189.99" y="750.0" type="line"/>
      <point x="171.11" y="765.98" type="line"/>
      <point x="207.6" y="1467.0" type="line"/>
      <point x="235.77" y="1500.0" type="line"/>
      <point x="1098.09" y="1500.0" type="line"/>
      <point x="1069.06" y="1173.45" type="line"/>
      <point x="279.2" y="1173.45" type="line"/>
      <point x="265.33" y="1155.45" type="line"/>
      <point x="248.87" y="851.99" type="line"/>
      <point x="498.64" y="929.98" type="line"/>
      <point x="864.02" y="975.54"/>
      <point x="1181.78" y="727.36"/>
      <point x="1181.78" y="487.05" type="qcurve" smooth="yes"/>
      <point x="1181.78" y="258.37"/>
      <point x="847.6673387096773" y="-18.45"/>
      <point x="531.681935483871" y="-18.45" type="qcurve" smooth="yes"/>
      <point x="344.3910483870968" y="-18.45"/>
      <point x="81.82467741935483" y="54.66"/>
    </contour>
  </outline>
</glyph>
<glyph name="hookabovecombstack.case" format="2">
  <advance width="951"/>
  <outline>
    <contour>
      <point x="393.33" y="1614.43" type="line"/>
      <point x="394.47" y="1791.11" type="line"/>
      <point x="435.05" y="1813.99" type="line"/>
      <point x="450.19" y="1804.28"/>
      <point x="487.3" y="1791.14"/>
      <point x="511.74" y="1791.14" type="qcurve" smooth="yes"/>
      <point x="554.32" y="1791.14"/>
      <point x="620.65" y="1834.71"/>
      <point x="620.65" y="1877.72" type="qcurve" smooth="yes"/>
      <point x="620.65" y="1921.59"/>
      <point x="543.89" y="1969.01"/>
      <point x="487.72" y="1969.01" type="qcurve" smooth="yes"/>
      <point x="435.88" y="1969.01"/>
      <point x="354.44" y="1936.87"/>
      <point x="318.01" y="1906.44" type="qcurve"/>
      <point x="284.01" y="1951.46" type="line"/>
      <point x="332.49" y="2010.08"/>
      <point x="458.76" y="2076.19"/>
      <point x="552.32" y="2076.19" type="qcurve" smooth="yes"/>
      <point x="649.18" y="2076.19"/>
      <point x="784.78" y="1977.48"/>
      <point x="784.78" y="1888.44" type="qcurve" smooth="yes"/>
      <point x="784.78" y="1793.0"/>
      <point x="661.06" y="1697.14"/>
      <point x="573.77" y="1697.14" type="qcurve" smooth="yes"/>
      <point x="532.5" y="1697.14"/>
      <point x="471.77" y="1710.72"/>
      <point x="447.19" y="1724.44" type="qcurve"/>
      <point x="447.19" y="1614.43" type="line"/>
    </contour>
  </outline>
</glyph>
<glyph name="horizontalbarH" format="2">
  <advance width="2226"/>
  <outline>
    <contour>
      <point x="2016.0" y="1031.93" type="line"/>
      <point x="1796.8" y="1033.5" type="line"/>
      <point x="1796.8" y="1129.1" type="line"/>
      <point x="2026.0" y="1127.53" type="line"/>
    </contour>
    <contour>
      <point x="207.8" y="1033.5" type="line"/>
      <point x="198.8" y="1129.1" type="line"/>
      <point x="426.4" y="1129.1" type="line"/>
      <point x="426.4" y="1033.5" type="line"/>
    </contour>
    <contour>
      <point x="426.4" y="1033.5" type="line"/>
      <point x="426.4" y="1129.1" type="line"/>
      <point x="1796.8" y="1129.1" type="line"/>
      <point x="1796.8" y="1033.5" type="line"/>
    </contour>
  </outline>
</glyph>
<glyph name="hornU" format="2">
  <advance width="1380"/>
  <outline>
    <contour>
      <point x="24.64" y="1445.42" type="line"/>
      <point x="24.64" y="1500.0" type="line"/>
      <point x="757.5699999999999" y="1500.0" type="line"/>
      <point x="757.5699999999999" y="1445.42" type="line"/>
      <point x="642.86" y="1411.42" type="line"/>
      <point x="639.86" y="824.1" type="line"/>
      <point x="639.86" y="454.44" type="line" smooth="yes"/>
      <point x="639.86" y="257.59"/>
      <point x="756.78" y="84.52"/>
      <point x="902.88" y="84.52" type="qcurve" smooth="yes"/>
      <point x="1053.71" y="84.52"/>
      <point x="1218.18" y="261.99"/>
      <point x="1216.75" y="484.71" type="qcurve" smooth="yes"/>
      <point x="1214.75" y="824.1" type="line"/>
      <point x="1210.8899999999999" y="1411.42" type="line"/>
      <point x="1059.45" y="1445.42" type="line"/>
      <point x="1059.45" y="1500.0" type="line"/>
      <point x="1278.03" y="1496.56" type="line"/>
      <point x="1277.17" y="824.1" type="line"/>
      <point x="1276.88" y="473.85" type="line" smooth="yes"/>
      <point x="1276.59" y="219.2"/>
      <point x="1034.1100000000001" y="-14.870000000000001"/>
      <point x="738.62" y="-14.870000000000001" type="qcurve" smooth="yes"/>
      <point x="420.98" y="-14.870000000000001"/>
      <point x="143.53" y="239.14"/>
      <point x="145.82" y="488.22" type="qcurve" smooth="yes"/>
      <point x="148.68" y="824.1" type="line"/>
      <point x="146.68" y="1411.42" type="line"/>
    </contour>
  </outline>
</glyph>
<glyph name="jdotless" format="2">
  <advance width="688"/>
  <outline>
    <contour>
      <point x="-41.41" y="-470.26" type="qcurve"/>
      <point x="-47.41" y="-386.56" type="line"/>
      <point x="41.379999999999995" y="-387.7"/>
      <point x="131.76999999999998" y="-242.03"/>
      <point x="131.76999999999998" y="-130.13" type="qcurve" smooth="yes"/>
      <point x="134.34" y="482.0" type="line"/>
      <point x="135.62" y="845.0" type="line"/>
      <point x="29.49" y="880.0" type="line"/>
      <point x="29.49" y="943.0" type="line"/>
      <point x="490.76" y="979.0" type="line"/>
      <point x="543.93" y="979.0" type="line"/>
      <point x="598.93" y="928.85" type="line"/>
      <point x="588.36" y="482.0" type="line"/>
      <point x="594.5" y="-20.340000000000003" type="line" smooth="yes"/>
      <point x="596.93" y="-249.76"/>
      <point x="316.83" y="-485.15"/>
    </contour>
  </outline>
</glyph>
<glyph name="macronbelowcomb.case" format="2">
  <advance width="896"/>
  <outline>
    <contour>
      <point x="131.3" y="-397.56" type="line"/>
      <point x="131.3" y="-222.57" type="line"/>
      <point x="892.7" y="-222.57" type="line"/>
      <point x="892.7" y="-397.56" type="line"/>
    </contour>
  </outline>
</glyph>
<glyph name="macroncomb.case" format="2">
  <advance width="896"/>
  <outline>
    <contour>
      <point x="123.7" y="1602.56" type="line"/>
      <point x="123.7" y="1792.56" type="line"/>
      <point x="772.3" y="1792.56" type="line"/>
      <point x="772.3" y="1602.56" type="line"/>
    </contour>
  </outline>
</glyph>
<glyph name="one.lc" format="2">
  <advance width="951"/>
  <outline>
    <contour>
      <point x="68.09" y="0.0" type="line"/>
      <point x="68.09" y="76.53" type="line"/>
      <point x="356.19" y="111.53" type="line"/>
      <point x="356.19" y="522.5" type="line"/>
      <point x="352.9" y="914.21" type="line"/>
      <point x="66.09" y="947.35" type="line"/>
      <point x="66.09" y="1027.86" type="line"/>
      <point x="636.64" y="1076.23" type="line"/>
      <point x="663.91" y="1048.11" type="line"/>
      <point x="656.62" y="522.07" type="line"/>
      <point x="656.62" y="111.53" type="line"/>
      <point x="939.99" y="76.53" type="line"/>
      <point x="939.99" y="0.0" type="line"/>
    </contour>
  </outline>
</glyph>
<glyph name="six.tab" format="2">
  <advance width="1389"/>
  <outline>
    <contour>
      <point x="64.4" y="650.0" type="qcurve" smooth="yes"/>
      <point x="64.4" y="1098.4693548387097"/>
      <point x="617.9874193548387" y="1544.9315322580644"/>
      <point x="1043.7218548387095" y="1524.16" type="qcurve"/>
      <point x="1052.0972580645162" y="1453.69" type="line"/>
      <point x="783.0478225806452" y="1459.27"/>
      <point x="497.12" y="1069.54"/>
      <point x="497.12" y="633.44" type="qcurve" smooth="yes"/>
      <point x="497.12" y="240.86"/>
      <point x="582.0496774193548" y="43.56"/>
      <point x="689.7446774193548" y="43.56" type="qcurve" smooth="yes"/>
      <point x="795.2291129032258" y="43.56"/>
      <point x="902.5113709677419" y="135.86491935483872"/>
      <point x="902.5113709677419" y="433.9549193548387" type="qcurve" smooth="yes"/>
      <point x="902.5113709677419" y="708.6749193548387"/>
      <point x="825.993629032258" y="827.75"/>
      <point x="719.9631451612904" y="827.75" type="qcurve" smooth="yes"/>
      <point x="685.6192741935483" y="827.75"/>
      <point x="601.0209677419355" y="796.17"/>
      <point x="583.17" y="774.88" type="qcurve"/>
      <point x="569.72" y="843.43" type="line"/>
      <point x="588.5831451612903" y="868.8517741935484"/>
      <point x="739.9300000000001" y="922.01"/>
      <point x="855.01" y="922.01" type="qcurve" smooth="yes"/>
      <point x="1034.65" y="922.01"/>
      <point x="1311.1599999999999" y="718.03"/>
      <point x="1311.1599999999999" y="462.49" type="qcurve" smooth="yes"/>
      <point x="1311.1599999999999" y="249.08"/>
      <point x="968.3316129032257" y="-16.31"/>
      <point x="684.0437096774194" y="-16.31" type="qcurve" smooth="yes"/>
      <point x="412.6128225806452" y="-16.31"/>
      <point x="64.4" y="298.36"/>
    </contour>
  </outline>
</glyph>
<glyph name="three.lc" format="2">
  <advance width="1113"/>
  <outline>
    <contour>
      <point x="11.14" y="-268.85" type="line"/>
      <point x="55.87" y="-276.86"/>
      <point x="119.12" y="-284.16"/>
      <point x="176.46" y="-284.16" type="qcurve" smooth="yes"/>
      <point x="451.78999999999996" y="-284.16"/>
      <point x="742.81" y="-90.73"/>
      <point x="740.53" y="90.96000000000001" type="qcurve" smooth="yes"/>
      <point x="738.8199999999999" y="224.37"/>
      <point x="535.0699999999999" y="373.79"/>
      <point x="348.85" y="381.65" type="qcurve" smooth="yes"/>
      <point x="257.91" y="385.51" type="line"/>
      <point x="251.78" y="474.92" type="line"/>
      <point x="319.84" y="478.49" type="line" smooth="yes"/>
      <point x="509.35" y="488.91"/>
      <point x="720.51" y="633.63"/>
      <point x="720.08" y="765.32" type="qcurve" smooth="yes"/>
      <point x="719.65" y="863.33"/>
      <point x="588.48" y="964.21"/>
      <point x="460.99" y="964.21" type="qcurve" smooth="yes"/>
      <point x="342.53" y="964.21"/>
      <point x="149.17" y="886.82"/>
      <point x="88.71" y="825.67" type="qcurve"/>
      <point x="32.3" y="914.97" type="line"/>
      <point x="108.18" y="995.67"/>
      <point x="369.7" y="1094.36"/>
      <point x="549.24" y="1093.93" type="qcurve" smooth="yes"/>
      <point x="763.42" y="1093.5"/>
      <point x="999.95" y="939.06"/>
      <point x="1002.1" y="806.36" type="qcurve" smooth="yes"/>
      <point x="1004.6800000000001" y="651.07"/>
      <point x="783.92" y="471.07"/>
      <point x="610.42" y="444.36" type="qcurve"/>
      <point x="610.42" y="438.36" type="line"/>
      <point x="795.63" y="423.79"/>
      <point x="1027.55" y="258.51"/>
      <point x="1028.41" y="100.4" type="qcurve" smooth="yes"/>
      <point x="1030.13" y="-128.33"/>
      <point x="605.7" y="-392.15"/>
      <point x="227.69" y="-392.15" type="qcurve" smooth="yes"/>
      <point x="157.9" y="-392.15"/>
      <point x="24.73" y="-376.98"/>
      <point x="-20.16" y="-361.67" type="qcurve"/>
    </contour>
  </outline>
</glyph>
<glyph name="three.lf" format="2">
  <advance width="1242"/>
  <outline>
    <contour>
      <point x="-19.42" y="179.25" type="qcurve"/>
      <point x="25.29" y="256.86" type="line"/>
      <point x="49.74" y="221.0"/>
      <point x="245.07999999999998" y="95.12"/>
      <point x="347.24" y="95.12" type="qcurve" smooth="yes"/>
      <point x="481.31" y="95.12"/>
      <point x="648.6" y="300.84"/>
      <point x="648.6" y="469.0" type="qcurve" smooth="yes"/>
      <point x="648.6" y="643.87"/>
      <point x="472.13" y="789.13"/>
      <point x="322.48" y="790.85" type="qcurve" smooth="yes"/>
      <point x="249.29" y="790.85" type="line"/>
      <point x="246.86" y="872.15" type="line"/>
      <point x="305.49" y="872.15" type="line" smooth="yes"/>
      <point x="415.9" y="871.72"/>
      <point x="594.0" y="1027.02"/>
      <point x="591.0" y="1153.34" type="qcurve" smooth="yes"/>
      <point x="589.0" y="1276.47"/>
      <point x="475.78" y="1373.71"/>
      <point x="368.9" y="1373.71" type="qcurve" smooth="yes"/>
      <point x="286.53999999999996" y="1373.71"/>
      <point x="131.53" y="1308.42"/>
      <point x="91.76" y="1272.98" type="qcurve"/>
      <point x="49.08" y="1336.72" type="line"/>
      <point x="109.69" y="1397.28"/>
      <point x="379.88" y="1524.0"/>
      <point x="585.28" y="1524.0" type="qcurve" smooth="yes"/>
      <point x="814.5799999999999" y="1524.0"/>
      <point x="1082.82" y="1371.3"/>
      <point x="1082.82" y="1218.6" type="qcurve" smooth="yes"/>
      <point x="1082.82" y="1071.6"/>
      <point x="902.3" y="892.43"/>
      <point x="684.17" y="866.0" type="qcurve"/>
      <point x="684.17" y="859.0" type="line"/>
      <point x="911.9" y="844.31"/>
      <point x="1164.43" y="665.93"/>
      <point x="1164.43" y="476.2" type="qcurve" smooth="yes"/>
      <point x="1164.43" y="279.45"/>
      <point x="812.42" y="-17.6"/>
      <point x="516.95" y="-17.6" type="qcurve" smooth="yes"/>
      <point x="292.77" y="-17.6"/>
      <point x="19.759999999999998" y="112.13"/>
    </contour>
  </outline>
</glyph>
<glyph name="two.lf" format="2">
  <advance width="1215"/>
  <outline>
    <contour>
      <point x="56.18" y="0.0" type="line"/>
      <point x="56.18" y="168.85" type="line"/>
      <point x="59.75" y="300.85"/>
      <point x="223.32" y="563.13"/>
      <point x="358.61" y="661.41" type="qcurve" smooth="yes"/>
      <point x="472.15999999999997" y="738.24"/>
      <point x="596.13" y="946.07"/>
      <point x="596.13" y="1107.25" type="qcurve" smooth="yes"/>
      <point x="596.13" y="1257.16"/>
      <point x="486.6" y="1377.25"/>
      <point x="367.6" y="1377.25" type="qcurve" smooth="yes"/>
      <point x="288.02" y="1377.25"/>
      <point x="141.2" y="1280.72"/>
      <point x="114.59" y="1231.53" type="qcurve"/>
      <point x="65.88" y="1313.62" type="line"/>
      <point x="122.78" y="1399.33"/>
      <point x="389.24" y="1526.0"/>
      <point x="580.73" y="1526.0" type="qcurve" smooth="yes"/>
      <point x="805.75" y="1526.0"/>
      <point x="1026.27" y="1342.7"/>
      <point x="1030.7" y="1181.7" type="qcurve" smooth="yes"/>
      <point x="1036.13" y="1013.69"/>
      <point x="859.61" y="785.85"/>
      <point x="616.01" y="641.0" type="qcurve" smooth="yes"/>
      <point x="416.32" y="528.29"/>
      <point x="254.72" y="410.14"/>
      <point x="232.13" y="335.85" type="qcurve"/>
      <point x="232.7" y="320.85" type="line"/>
      <point x="1078.6" y="320.85" type="line"/>
      <point x="1078.6" y="0.0" type="line"/>
    </contour>
  </outline>
</glyph>
<glyph name="two.tab" format="2">
  <advance width="1422"/>
  <outline>
    <contour>
      <point x="131.86" y="0.0" type="line"/>
      <point x="132.6541129032258" y="168.85" type="line"/>
      <point x="139.39016129032257" y="300.85"/>
      <point x="342.6900806451613" y="563.13"/>
      <point x="492.3850806451613" y="661.41" type="qcurve" smooth="yes"/>
      <point x="620.5828225806451" y="738.24"/>
      <point x="764.138629032258" y="946.07"/>
      <point x="764.138629032258" y="1107.25" type="qcurve" smooth="yes"/>
      <point x="764.138629032258" y="1252.0"/>
      <point x="641.4" y="1377.25"/>
      <point x="507.78" y="1377.25" type="qcurve" smooth="yes"/>
      <point x="401.53999999999996" y="1377.25"/>
      <point x="228.06" y="1261.8"/>
      <point x="194.57" y="1219.49" type="qcurve"/>
      <point x="141.13" y="1309.32" type="line"/>
      <point x="203.8974193548387" y="1392.88"/>
      <point x="492.01" y="1526.0"/>
      <point x="714.03" y="1526.0" type="qcurve" smooth="yes"/>
      <point x="955.39" y="1526.0"/>
      <point x="1194.4" y="1342.7"/>
      <point x="1198.83" y="1181.7" type="qcurve" smooth="yes"/>
      <point x="1204.26" y="1013.69"/>
      <point x="1006.7289516129033" y="785.42"/>
      <point x="754.2064516129033" y="641.0" type="qcurve" smooth="yes"/>
      <point x="543.5757258064516" y="528.29"/>
      <point x="343.4699193548387" y="408.85"/>
      <point x="319.04895161290324" y="335.85" type="qcurve"/>
      <point x="319.98306451612905" y="320.85" type="line"/>
      <point x="1248.45" y="320.85" type="line"/>
      <point x="1248.45" y="0.0" type="line"/>
    </contour>
  </outline>
</glyph>
<glyph name="zero.lc" format="2">
  <advance width="1524"/>
  <outline>
    <contour>
      <point x="63.14" y="533.24" type="qcurve" smooth="yes"/>
      <point x="63.14" y="777.55"/>
      <point x="459.85" y="1094.07"/>
      <point x="764.45" y="1094.07" type="qcurve" smooth="yes"/>
      <point x="1070.05" y="1094.07"/>
      <point x="1460.3600000000001" y="792.53"/>
      <point x="1460.3600000000001" y="539.81" type="qcurve" smooth="yes"/>
      <point x="1460.3600000000001" y="295.64"/>
      <point x="1067.51" y="-27.16"/>
      <point x="761.62" y="-27.16" type="qcurve" smooth="yes"/>
      <point x="455.59000000000003" y="-27.16"/>
      <point x="63.14" y="274.08"/>
    </contour>
    <contour>
      <point x="385.28999999999996" y="551.8" type="qcurve" smooth="yes"/>
      <point x="385.28999999999996" y="306.86"/>
      <point x="592.02" y="61.05"/>
      <point x="759.46" y="61.05" type="qcurve" smooth="yes"/>
      <point x="938.61" y="61.05"/>
      <point x="1138.78" y="311.45"/>
      <point x="1138.78" y="535.51" type="qcurve" smooth="yes"/>
      <point x="1138.78" y="755.47"/>
      <point x="935.47" y="994.7"/>
      <point x="765.31" y="997.28" type="qcurve" smooth="yes"/>
      <point x="584.16" y="999.86"/>
      <point x="385.28999999999996" y="773.17"/>
    </contour>
  </outline>
</glyph>
<glyph name="zero.lf" format="2">
  <advance width="1306"/>
  <outline>
    <contour>
      <point x="42.9" y="753.72" type="qcurve" smooth="yes"/>
      <point x="42.9" y="1134.2"/>
      <point x="389.2" y="1525.0"/>
      <point x="656.48" y="1525.0" type="qcurve" smooth="yes"/>
      <point x="924.62" y="1525.0"/>
      <point x="1263.2" y="1137.2"/>
      <point x="1263.2" y="759.99" type="qcurve" smooth="yes"/>
      <point x="1263.2" y="391.74"/>
      <point x="930.05" y="-18.6"/>
      <point x="658.05" y="-18.6" type="qcurve" smooth="yes"/>
      <point x="396.2" y="-18.6"/>
      <point x="42.9" y="380.9"/>
    </contour>
    <contour>
      <point x="501.55" y="761.89" type="qcurve" smooth="yes"/>
      <point x="501.98" y="163.3"/>
      <point x="577.6" y="40.980000000000004"/>
      <point x="653.34" y="40.980000000000004" type="qcurve" smooth="yes"/>
      <point x="728.9300000000001" y="40.980000000000004"/>
      <point x="804.41" y="161.01"/>
      <point x="804.55" y="748.18" type="qcurve" smooth="yes"/>
      <point x="805.12" y="1366.42"/>
      <point x="723.35" y="1475.85"/>
      <point x="652.48" y="1475.28" type="qcurve" smooth="yes"/>
      <point x="580.18" y="1474.71"/>
      <point x="501.55" y="1378.0"/>
    </contour>
  </outline>
</glyph>
